<svg id="圖層_1" data-name="圖層 1" xmlns="http://www.w3.org/2000/svg" xmlns:xlink="http://www.w3.org/1999/xlink" viewBox="0 0 430.95 64"><defs><style>.cls-1{fill:#4d4d4d;}.cls-2{isolation:isolate;}.cls-3{mix-blend-mode:hue;fill:url(#radial-gradient);}.cls-4,.cls-5,.cls-6,.cls-7{mix-blend-mode:color;}.cls-4{fill:url(#radial-gradient-2);}.cls-5{fill:url(#radial-gradient-3);}.cls-6{fill:url(#radial-gradient-4);}.cls-7{fill:url(#radial-gradient-5);}.cls-8{fill:url(#radial-gradient-6);}.cls-9{fill:url(#radial-gradient-7);}</style><radialGradient id="radial-gradient" cx="22.52" cy="9.38" r="10.89" gradientUnits="userSpaceOnUse"><stop offset="0" stop-color="#b9d29d"/><stop offset="0.51" stop-color="#7eb261"/><stop offset="0.85" stop-color="#579855"/><stop offset="1" stop-color="#458c4f"/></radialGradient><radialGradient id="radial-gradient-2" cx="22.52" cy="8.38" r="48.84" gradientUnits="userSpaceOnUse"><stop offset="0" stop-color="#fff9a9"/><stop offset="0.03" stop-color="#fff897"/><stop offset="0.08" stop-color="#fff67c"/><stop offset="0.13" stop-color="#fff469"/><stop offset="0.19" stop-color="#fff35d"/><stop offset="0.24" stop-color="#fff359"/><stop offset="0.34" stop-color="#ecd944"/><stop offset="0.53" stop-color="#caad1f"/><stop offset="0.68" stop-color="#b59108"/><stop offset="0.77" stop-color="#ad8700"/></radialGradient><radialGradient id="radial-gradient-3" cx="22.52" cy="8.88" r="48.98" gradientUnits="userSpaceOnUse"><stop offset="0" stop-color="#d2e8b2"/><stop offset="0.07" stop-color="#c8e3a1"/><stop offset="0.2" stop-color="#aed675"/><stop offset="0.38" stop-color="#85c12f"/><stop offset="0.46" stop-color="#7db92c"/><stop offset="0.59" stop-color="#67a425"/><stop offset="0.76" stop-color="#438219"/><stop offset="0.94" stop-color="#115309"/><stop offset="1" stop-color="#004303"/></radialGradient><radialGradient id="radial-gradient-4" cx="22.52" cy="8.55" r="49.16" gradientUnits="userSpaceOnUse"><stop offset="0.01" stop-color="#80c4e6"/><stop offset="0.28" stop-color="#00a9ea"/><stop offset="0.38" stop-color="#00a0de"/><stop offset="0.55" stop-color="#0089bd"/><stop offset="0.78" stop-color="#006488"/><stop offset="1" stop-color="#003d51"/></radialGradient><radialGradient id="radial-gradient-5" cx="22.52" cy="8.71" r="30.18" gradientUnits="userSpaceOnUse"><stop offset="0" stop-color="#3caaaa"/><stop offset="0.28" stop-color="#118989"/><stop offset="0.72" stop-color="#076762"/><stop offset="1" stop-color="#005048"/></radialGradient><radialGradient id="radial-gradient-6" cx="-46.36" cy="-19.12" r="36.41" gradientTransform="matrix(0.86, -0.11, 0.09, 1.05, 64.78, 58.91)" gradientUnits="userSpaceOnUse"><stop offset="0" stop-color="#dfe08c"/><stop offset="0.06" stop-color="#e2df7e"/><stop offset="0.17" stop-color="#ebdb59"/><stop offset="0.33" stop-color="#f8d61f"/><stop offset="0.4" stop-color="#ffd300"/><stop offset="0.56" stop-color="#fbc908"/><stop offset="0.84" stop-color="#efaf1e"/><stop offset="1" stop-color="#e79d2d"/></radialGradient><radialGradient id="radial-gradient-7" cx="136.04" cy="-211.28" r="4.57" gradientTransform="matrix(0.32, 0.7, -1, 0.35, -198.06, -11.47)" xlink:href="#radial-gradient-6"/></defs><title>Logo_Pic</title><path class="cls-1" d="M107.42,8.72H88.59q-.12,3.15-.37,5.29h15.49q-.3,6.45-.75,10.6a17.18,17.18,0,0,1-1,5.16,3.82,3.82,0,0,1-1.72,1.56,10.33,10.33,0,0,1-4,.54q-1.9,0-4.06-.16l-.84-3.13q2.74.21,4.8.21a4.74,4.74,0,0,0,2.63-.44q.5-.44.88-3t.66-8.28H88q-1.16,9-10.27,15l-2-2.74a22.63,22.63,0,0,0,5.45-4.55,13.64,13.64,0,0,0,3.16-6.25,55.74,55.74,0,0,0,.89-9.82h-9V5.61H90.39a33.53,33.53,0,0,0-2.65-4.38l3.41-1a57.2,57.2,0,0,1,2.92,5.4h13.36Z"/><path class="cls-1" d="M143.67,28.41l-1.07,3q-6.21.11-12.81.11-8.17,0-11.92-3.64a35.61,35.61,0,0,1-3.5,4.43l-2.55-2.06a23,23,0,0,0,6-10.34h-5.26v-3a40.47,40.47,0,0,0,4.64-6.22H112V7.77h9v2.85A59.48,59.48,0,0,1,116.56,17h4.64v2.9a48.91,48.91,0,0,1-2,5.34,8.6,8.6,0,0,0,3.16,2.2,14,14,0,0,0,3.94,1q2.07.21,7.41.21Q138.64,28.6,143.67,28.41ZM120.81,4.71l-2.3,2.2a28.66,28.66,0,0,0-5.66-4.64L115,0A33.15,33.15,0,0,1,120.81,4.71Zm22.75,20.23h-9.11v2.88h-3.23V24.94H122V22.22h9.26V20.41H123.4V17.86h7.82V16h-8.54V13.32h4.76a21.65,21.65,0,0,0-1.3-2.74h-4V7.88h9V5.57H123V2.92h8.21V.47h3.16V2.92h7.95V5.57h-7.95v2.3h9.14v2.71h-3.88a25.4,25.4,0,0,1-1.27,2.74h4.46V16h-8.35v1.88h7.66v2.55h-7.66v1.81h9.11Zm-7.31-14.36h-6.8a26.87,26.87,0,0,1,1.23,2.74h4.39A25.73,25.73,0,0,0,136.25,10.58Z"/><path class="cls-1" d="M163,2.88a33.12,33.12,0,0,1-5.33,1.28V8.82h4.54v3h-4.54v1A38.28,38.28,0,0,1,162.46,19l-2.23,2.37A32.26,32.26,0,0,0,157.64,17V31.85h-3.13V17.6a27.53,27.53,0,0,1-4.87,7.17l-1.83-2.85a33,33,0,0,0,6.52-10.07h-6.17v-3h6.35V4.68q-2.29.35-4.8.51l-1.35-2.92A57.94,57.94,0,0,0,161.42.18Zm16.56,19.9-3.34.51v8.63H173V23.7l-10.83,1.46L161.89,22,173,20.48V.54h3.18V20.06l3.23-.4Zm-8.1-6.4-2.16,2.41a34.56,34.56,0,0,0-6.73-6.19l2.09-2.34A39.83,39.83,0,0,1,171.42,16.38Zm.51-8.72L169.77,10a42.66,42.66,0,0,0-6.36-5.91l2.23-2.27A46,46,0,0,1,171.93,7.66Z"/><path class="cls-1" d="M195.8,16.52q-2,.95-3.74,1.58V28.55a3.46,3.46,0,0,1-.76,2.39,3.33,3.33,0,0,1-2.53.87q-1.78,0-3.06,0l-1-3.13q1.9.07,3.27.07a.91.91,0,0,0,.64-.31,1,1,0,0,0,.31-.69V19.3q-2,.7-4.11,1.25l-.86-3q3.38-1,5-1.65V9.28h-4.57V6.22h4.57V.39h3.13V6.22h3.3V9.28h-3.3V14.7a22.7,22.7,0,0,0,3.09-1.3Zm20.06,13L214,32.22a35.65,35.65,0,0,1-8.42-5,38.28,38.28,0,0,1-9.25,5l-1.78-2.88a34.22,34.22,0,0,0,8.75-4.25,27.11,27.11,0,0,1-5.12-9.28H197v-3h7.14V8.1h-7.63v-3h7.63V.51h3.23V5.08h7.56v3h-7.56v4.68H214v3a26.86,26.86,0,0,1-6,9.35A28.41,28.41,0,0,0,215.86,29.51ZM210.48,15.8h-8.84A20.68,20.68,0,0,0,205.77,23,22.22,22.22,0,0,0,210.48,15.8Z"/><path class="cls-1" d="M232,28.86q0,3-3.53,3a15.63,15.63,0,0,1-1.62-.09l-1.18-3.16q.65,0,2.76,0a.44.44,0,0,0,.51-.49V19.51q-1.65,2.07-3,3.46l-1.07-1.81q-.54,7.56-2.3,10.85L220,30q1.88-4.17,1.88-11.92V1H232ZM229,11.48V4.17h-4V8.24l1.83-1.34A30,30,0,0,1,229,11.48Zm0,3V12.38L226.83,14A20,20,0,0,0,225,9.28V19.37A37.76,37.76,0,0,0,229,14.43Zm22.9,14.84L250.26,32a23.4,23.4,0,0,1-8.35-4,30.36,30.36,0,0,1-7.7,4l-1.76-2.74a23.81,23.81,0,0,0,7-3.3A21.75,21.75,0,0,1,235,18.35h-1.58v-3h16v3a26,26,0,0,1-5,7.45A24.36,24.36,0,0,0,251.86,29.27Zm-.37-15.91h-5.12a2.17,2.17,0,0,1-1.71-.76,2.57,2.57,0,0,1-.66-1.74V4.36h-5V6a10.56,10.56,0,0,1-3.48,8.42l-2.64-2.06a7.56,7.56,0,0,0,2.92-6.47V1.3h11.34V9.83a.51.51,0,0,0,.58.58h3.78Zm-5.7,5h-7.37a14.78,14.78,0,0,0,3.62,5.52A22.88,22.88,0,0,0,245.79,18.35Z"/><path class="cls-1" d="M266.64.9q-.58,1.65-1.81,4.43l-1.25,2.74V32h-3.27V13.61a23.07,23.07,0,0,1-2.67,3.3l-1.72-3.37A38.58,38.58,0,0,0,263.34.21Zm21.22,10.34-2.09,2.92-.72-.54q0,2-.37,8.46a58.53,58.53,0,0,1-.73,7.58,3.11,3.11,0,0,1-1.3,1.76,5.2,5.2,0,0,1-2.87.65q-1.09,0-3.59-.05l-.83-3.11q1.78.14,2.72.14,2.21,0,2.65-.42t.71-5.57q.28-5.15.28-6.93h-5.43q-.56,11.11-9.42,16.07l-2.16-2.57q7.77-3.92,8.35-13.5h-5.8V13.32a5.28,5.28,0,0,1-1,.72l-1.92-2.71q4.34-3.67,6.91-10.83l3.29.83Q271.51,9,267.66,13H284.4A22.5,22.5,0,0,1,278.82,4h-3V.9h5.4Q282.94,7.93,287.86,11.23Z"/><path class="cls-1" d="M323.49,6.91H306A23.54,23.54,0,0,1,304.12,10H321V29.3a2.52,2.52,0,0,1-.64,1.85,2.73,2.73,0,0,1-1.94.69q-1.3,0-2.57,0-2,0-3.32-.05l-1.39-3.2q2.29.11,5.85.11.76,0,.76-.83v-3.3h-16A18,18,0,0,1,298,31.85l-3.06-1.72q3.88-4.25,3.88-8V16.38a26.51,26.51,0,0,1-4.71,4l-2.3-2.44a34.25,34.25,0,0,0,10.41-11h-10V3.78h11.71A20.51,20.51,0,0,0,305.53.21l3.32.54a24.84,24.84,0,0,1-1.27,3h15.91Zm-5.73,9V13.06H302.08v2.85Zm0,5.73V18.83H302.08v2.81Z"/><path class="cls-1" d="M337.06,11.41a14.6,14.6,0,0,1,3,8.21q0,5-5,5-.53,0-1.14,0l-.9-3.22a9.15,9.15,0,0,0,1.6.12,3,3,0,0,0,1.72-.35,1.71,1.71,0,0,0,.46-1.41,13,13,0,0,0-3.2-8q1-2.51,2.48-7.49h-4V31.92h-3.09V1h10.39V4.25Q338.31,8.19,337.06,11.41Zm20.67,4.75H344.85V27.72a38.82,38.82,0,0,0,5.29-2.09l.18,3.36a52.37,52.37,0,0,1-8.14,2.9L341,29.2a1.55,1.55,0,0,0,.69-1.41V1.14h16Zm-3.22-8.91V4h-9.67V7.24Zm0,6V10.07h-9.67v3.22Zm5.22,16.19-1.83,2.64a21.82,21.82,0,0,1-10-13.69l2.9-.9a20.4,20.4,0,0,0,1.6,4.08,26,26,0,0,0,4.57-4.32l2.3,2.09A29.13,29.13,0,0,1,354,24.45,20.68,20.68,0,0,0,359.74,29.48Z"/><path class="cls-1" d="M377.49,1.37a36.39,36.39,0,0,1-11.55,16l-2.06-2.74A30.2,30.2,0,0,0,374.29.28Zm16,28.76-2.87,2a32.39,32.39,0,0,0-2-4q-8.31,2-20.34,3.57l-.93-2.74q4.62-3.34,10.83-18.32l3.27,1a78.15,78.15,0,0,1-9,16.35A113.51,113.51,0,0,0,387,25.35a63.58,63.58,0,0,0-3.74-5.45l2.65-1.72A65.54,65.54,0,0,1,393.54,30.13Zm2.36-15.36L394,17.6q-6.68-4.73-10-13.78h-2.92V.76h5.22Q389.07,10,395.89,14.77Z"/><path class="cls-1" d="M430.42,27.69q0,4.2-4.11,4.2-3.64,0-5.33-.07L420,28.58q4,.09,5.57.09t1.55-.91V4.06H400.24v-3h30.18Zm-6.21-17.61H401V7.15h23.22Zm-2.3,15.49H403.08V13.43h18.83Zm-3.27-3V16.38H406.28v6.19Z"/><g class="cls-2"><path class="cls-3" d="M22.71,8.85c.4-2.42,4.53-8,11.07-7.39A18.79,18.79,0,0,0,14,9.6C17.5,6.25,21.12,8.23,22.71,8.85Z"/><path class="cls-4" d="M25.58,44.19C16.9,35.54,9.4,21.63,22.71,8.85c-1.59-.61-5.21-2.6-8.67.75a21.45,21.45,0,0,0-3.48,14,22.24,22.24,0,0,0,2.89,9.09c4.44,8.73,18.86,15.12,16.18,22.75C30.9,52.57,29.8,48.39,25.58,44.19Z"/><path class="cls-5" d="M35.66,49A33.62,33.62,0,0,0,36,27.27C33.34,18.69,24,14.35,22.71,8.85,9.4,21.63,16.9,35.54,25.58,44.19c4.22,4.2,5.33,8.37,4.05,11.23a7.62,7.62,0,0,1-1,1.94A17.13,17.13,0,0,0,35.66,49Z"/><path class="cls-6" d="M50.05,20.68h0c-.6-7-5.89-12.63-12.16-12.76-7.15-.14-11,2.11-15.17.93C24,14.35,33.34,18.69,36,27.27A33.62,33.62,0,0,1,35.66,49a17.13,17.13,0,0,1-7.08,8.37l-.13.19C44.2,52.67,51.16,32.47,50,20.47,50.05,20.54,50,20.62,50.05,20.68Z"/><path class="cls-7" d="M37.88,7.92C44.16,8,49.44,13.64,50,20.68h0c0-.07,0-.14,0-.21-.89-9.59-7.73-17.19-16.26-19-6.54-.64-10.68,5-11.07,7.39C26.85,10,30.73,7.77,37.88,7.92Z"/><path class="cls-8" d="M18.81,43.09C-2,47.2,1.48,30.79,1.39,30.19-3.81,44.38,6.3,53.8,19.61,51.24,41.55,47,57.4,29.79,55.83,18.88,51.41,30.69,32.78,40.34,18.81,43.09Z"/><path class="cls-9" d="M53.5,10.63c-2.07-3,1.84-3.46,3.31-2.16a4.45,4.45,0,0,1,.11,5.92C55.38,15.88,56.29,13.63,53.5,10.63Z"/></g><path class="cls-1" d="M79.47,58.42V41.24H91.06v2H81.75v5.32h8.06v2H81.75v7.8Z"/><path class="cls-1" d="M103.89,58.42V56.59a4.56,4.56,0,0,1-3.95,2.11,5,5,0,0,1-2.06-.42,3.39,3.39,0,0,1-1.42-1.06,4,4,0,0,1-.65-1.56,10.71,10.71,0,0,1-.13-2V46H97.8v6.9a12.3,12.3,0,0,0,.13,2.23,2.2,2.2,0,0,0,.84,1.31,2.61,2.61,0,0,0,1.59.47,3.47,3.47,0,0,0,1.78-.49,2.7,2.7,0,0,0,1.18-1.32,6.64,6.64,0,0,0,.35-2.43V46h2.11V58.42Z"/><path class="cls-1" d="M111.08,58.42V46H113v1.77a4.47,4.47,0,0,1,4-2.05,5.2,5.2,0,0,1,2.07.4,3.25,3.25,0,0,1,1.41,1.06,4.07,4.07,0,0,1,.66,1.56,12.08,12.08,0,0,1,.12,2.05v7.65h-2.11V50.85a5.68,5.68,0,0,0-.25-1.93,2,2,0,0,0-.87-1,2.78,2.78,0,0,0-1.47-.38,3.42,3.42,0,0,0-2.33.86q-1,.86-1,3.25v6.8Z"/><path class="cls-1" d="M126.69,58.42V41.24h5.92a14.35,14.35,0,0,1,3.06.25,5.82,5.82,0,0,1,2.52,1.23,7,7,0,0,1,2,2.94,11.52,11.52,0,0,1,.67,4.08,12,12,0,0,1-.46,3.47,8.42,8.42,0,0,1-1.17,2.5,6.23,6.23,0,0,1-1.56,1.56,6.38,6.38,0,0,1-2.05.86,11.7,11.7,0,0,1-2.76.29Zm2.27-2h3.67a8.9,8.9,0,0,0,2.67-.32,3.81,3.81,0,0,0,1.54-.89A5.42,5.42,0,0,0,138.1,53a10.63,10.63,0,0,0,.45-3.31,8,8,0,0,0-.88-4.14,4.45,4.45,0,0,0-2.15-1.94,8.89,8.89,0,0,0-2.94-.35H129Z"/><path class="cls-1" d="M145,52.2a6.41,6.41,0,0,1,1.92-5.12,5.79,5.79,0,0,1,3.91-1.38,5.58,5.58,0,0,1,4.2,1.68A6.4,6.4,0,0,1,156.62,52a8.23,8.23,0,0,1-.72,3.78,5.1,5.1,0,0,1-2.1,2.14,6.11,6.11,0,0,1-3,.76A5.59,5.59,0,0,1,146.57,57,6.69,6.69,0,0,1,145,52.2Zm2.17,0a5.3,5.3,0,0,0,1,3.58,3.47,3.47,0,0,0,5.24,0,5.43,5.43,0,0,0,1-3.64,5.14,5.14,0,0,0-1-3.5,3.48,3.48,0,0,0-5.23,0A5.28,5.28,0,0,0,147.12,52.2Z"/><path class="cls-1" d="M165.69,56.54l.3,1.86a7.82,7.82,0,0,1-1.59.19,3.61,3.61,0,0,1-1.78-.36,2,2,0,0,1-.89-1,7.55,7.55,0,0,1-.26-2.49V47.62h-1.55V46h1.55V42.9l2.1-1.27V46h2.12v1.64h-2.12V54.9a3.68,3.68,0,0,0,.11,1.16.88.88,0,0,0,.36.41,1.4,1.4,0,0,0,.72.15A6.86,6.86,0,0,0,165.69,56.54Z"/><path class="cls-1" d="M182.61,58.42V43.27h-5.66v-2h13.62v2h-5.68V58.42Z"/><path class="cls-1" d="M200.48,54.42l2.18.27a5.32,5.32,0,0,1-1.91,3,6.47,6.47,0,0,1-7.89-.63,6.57,6.57,0,0,1-1.6-4.72,6.88,6.88,0,0,1,1.62-4.87,5.47,5.47,0,0,1,4.2-1.73,5.32,5.32,0,0,1,4.08,1.7,6.75,6.75,0,0,1,1.58,4.78q0,.19,0,.56h-9.28a4.78,4.78,0,0,0,1.16,3.14A3.45,3.45,0,0,0,197.2,57a3.23,3.23,0,0,0,2-.61A4,4,0,0,0,200.48,54.42ZM193.55,51h6.95a4.22,4.22,0,0,0-.8-2.36,3.23,3.23,0,0,0-2.61-1.22,3.35,3.35,0,0,0-2.44,1A3.85,3.85,0,0,0,193.55,51Z"/><path class="cls-1" d="M215.42,53.86l2.07.27a5.38,5.38,0,0,1-1.74,3.36,5.07,5.07,0,0,1-3.44,1.21A5.34,5.34,0,0,1,208.21,57a6.78,6.78,0,0,1-1.55-4.79,8.66,8.66,0,0,1,.67-3.53,4.66,4.66,0,0,1,2-2.27,6,6,0,0,1,3-.76,5.16,5.16,0,0,1,3.32,1,4.7,4.7,0,0,1,1.65,2.91l-2.05.32a3.41,3.41,0,0,0-1-1.89,2.68,2.68,0,0,0-1.8-.63,3.27,3.27,0,0,0-2.59,1.14,5.42,5.42,0,0,0-1,3.62,5.61,5.61,0,0,0,1,3.64A3.13,3.13,0,0,0,212.29,57a3,3,0,0,0,2.07-.76A3.78,3.78,0,0,0,215.42,53.86Z"/><path class="cls-1" d="M221.29,58.42V41.24h2.11v6.16a4.71,4.71,0,0,1,3.73-1.71,5,5,0,0,1,2.4.54A3.2,3.2,0,0,1,231,47.75a6.94,6.94,0,0,1,.44,2.79v7.89h-2.11V50.54a3.26,3.26,0,0,0-.69-2.3,2.55,2.55,0,0,0-1.94-.72,3.42,3.42,0,0,0-1.76.49,2.75,2.75,0,0,0-1.18,1.32,6.06,6.06,0,0,0-.35,2.3v6.81Z"/><path class="cls-1" d="M236.63,58.42V46h1.9v1.77a4.47,4.47,0,0,1,4-2.05,5.2,5.2,0,0,1,2.07.4A3.25,3.25,0,0,1,246,47.16a4.07,4.07,0,0,1,.66,1.56,12.08,12.08,0,0,1,.12,2.05v7.65h-2.11V50.85a5.68,5.68,0,0,0-.25-1.93,2,2,0,0,0-.87-1,2.78,2.78,0,0,0-1.47-.38,3.42,3.42,0,0,0-2.33.86q-1,.86-1,3.25v6.8Z"/><path class="cls-1" d="M251.19,52.2a6.41,6.41,0,0,1,1.92-5.12A5.79,5.79,0,0,1,257,45.7a5.58,5.58,0,0,1,4.2,1.68A6.4,6.4,0,0,1,262.85,52a8.23,8.23,0,0,1-.72,3.78,5.1,5.1,0,0,1-2.1,2.14,6.11,6.11,0,0,1-3,.76A5.59,5.59,0,0,1,252.8,57,6.69,6.69,0,0,1,251.19,52.2Zm2.17,0a5.3,5.3,0,0,0,1,3.58,3.47,3.47,0,0,0,5.24,0,5.43,5.43,0,0,0,1-3.64,5.14,5.14,0,0,0-1-3.5,3.48,3.48,0,0,0-5.23,0A5.28,5.28,0,0,0,253.35,52.2Z"/><path class="cls-1" d="M267.26,58.42V41.24h2.11V58.42Z"/><path class="cls-1" d="M273.85,52.2a6.41,6.41,0,0,1,1.92-5.12,5.79,5.79,0,0,1,3.91-1.38,5.58,5.58,0,0,1,4.2,1.68A6.4,6.4,0,0,1,285.51,52a8.23,8.23,0,0,1-.72,3.78,5.1,5.1,0,0,1-2.1,2.14,6.11,6.11,0,0,1-3,.76A5.59,5.59,0,0,1,275.46,57,6.69,6.69,0,0,1,273.85,52.2Zm2.17,0a5.3,5.3,0,0,0,1,3.58,3.47,3.47,0,0,0,5.24,0,5.43,5.43,0,0,0,1-3.64,5.14,5.14,0,0,0-1-3.5,3.48,3.48,0,0,0-5.23,0A5.28,5.28,0,0,0,276,52.2Z"/><path class="cls-1" d="M289.59,59.45l2.05.3a2,2,0,0,0,.71,1.38,3.51,3.51,0,0,0,2.14.59,3.77,3.77,0,0,0,2.26-.59,2.88,2.88,0,0,0,1.08-1.64,13.47,13.47,0,0,0,.15-2.71,4.34,4.34,0,0,1-3.45,1.63,4.7,4.7,0,0,1-4-1.85,7.13,7.13,0,0,1-1.41-4.44,8.27,8.27,0,0,1,.64-3.29,5.16,5.16,0,0,1,1.87-2.33,5,5,0,0,1,2.88-.82,4.46,4.46,0,0,1,3.63,1.78V46h1.95V56.74a10.2,10.2,0,0,1-.59,4.12,4.33,4.33,0,0,1-1.87,1.92,6.5,6.5,0,0,1-3.16.7,6,6,0,0,1-3.6-1A3.39,3.39,0,0,1,289.59,59.45ZM291.33,52a5.4,5.4,0,0,0,1,3.57,3.21,3.21,0,0,0,4.88,0,5.22,5.22,0,0,0,1-3.51,5.1,5.1,0,0,0-1-3.45,3.13,3.13,0,0,0-2.44-1.16,3,3,0,0,0-2.39,1.14A5.07,5.07,0,0,0,291.33,52Z"/><path class="cls-1" d="M305.22,63.22l-.23-2a4.7,4.7,0,0,0,1.21.19,2.32,2.32,0,0,0,1.13-.23,1.92,1.92,0,0,0,.69-.66,10.35,10.35,0,0,0,.64-1.57l.19-.52L304.12,46h2.27L309,53.18q.5,1.37.9,2.88a28.38,28.38,0,0,1,.87-2.84L313.41,46h2.11l-4.73,12.66a24.84,24.84,0,0,1-1.18,2.82A4.17,4.17,0,0,1,308.31,63a3,3,0,0,1-1.73.49A4.22,4.22,0,0,1,305.22,63.22Z"/><path class="cls-1" d="M340.49,52.4l2.27.57a7.65,7.65,0,0,1-2.57,4.27,7.09,7.09,0,0,1-4.54,1.47,8.16,8.16,0,0,1-4.52-1.13,7.06,7.06,0,0,1-2.65-3.28,11.69,11.69,0,0,1-.91-4.61,10.12,10.12,0,0,1,1-4.68,7,7,0,0,1,2.92-3,8.53,8.53,0,0,1,4.17-1A7,7,0,0,1,340,42.26,6.82,6.82,0,0,1,342.47,46l-2.24.53a5.31,5.31,0,0,0-1.73-2.73,4.62,4.62,0,0,0-2.86-.86,5.55,5.55,0,0,0-3.31.95,5,5,0,0,0-1.87,2.55,10.26,10.26,0,0,0-.54,3.3,10.48,10.48,0,0,0,.64,3.83,4.76,4.76,0,0,0,2,2.44,5.57,5.57,0,0,0,2.92.81,4.89,4.89,0,0,0,3.23-1.1A5.64,5.64,0,0,0,340.49,52.4Z"/><path class="cls-1" d="M346.5,52.2a6.41,6.41,0,0,1,1.92-5.12,5.79,5.79,0,0,1,3.91-1.38,5.58,5.58,0,0,1,4.2,1.68A6.4,6.4,0,0,1,358.16,52a8.23,8.23,0,0,1-.72,3.78,5.1,5.1,0,0,1-2.1,2.14,6.11,6.11,0,0,1-3,.76A5.59,5.59,0,0,1,348.12,57,6.69,6.69,0,0,1,346.5,52.2Zm2.17,0a5.3,5.3,0,0,0,1,3.58,3.47,3.47,0,0,0,5.24,0,5.43,5.43,0,0,0,1-3.64,5.14,5.14,0,0,0-1-3.5,3.48,3.48,0,0,0-5.23,0A5.28,5.28,0,0,0,348.67,52.2Z"/><path class="cls-1" d="M363.23,58.42V56h2.4v2.4Z"/><path class="cls-1" d="M371.84,58.42V56h2.4v2.4a4.26,4.26,0,0,1-.47,2.14,3.06,3.06,0,0,1-1.49,1.26l-.59-.9a2,2,0,0,0,1-.86,3.67,3.67,0,0,0,.35-1.63Z"/><path class="cls-1" d="M388.78,58.42V41.24h2.27V56.4h8.46v2Z"/><path class="cls-1" d="M408.55,56.54l.3,1.86a7.82,7.82,0,0,1-1.59.19,3.61,3.61,0,0,1-1.78-.36,2,2,0,0,1-.89-1,7.55,7.55,0,0,1-.26-2.49V47.62h-1.55V46h1.55V42.9l2.1-1.27V46h2.12v1.64h-2.12V54.9a3.68,3.68,0,0,0,.11,1.16.88.88,0,0,0,.36.41,1.4,1.4,0,0,0,.72.15A6.86,6.86,0,0,0,408.55,56.54Z"/><path class="cls-1" d="M420.68,58.42V56.85a3.87,3.87,0,0,1-3.48,1.85,4.88,4.88,0,0,1-2.74-.82,5.39,5.39,0,0,1-1.93-2.29,7.92,7.92,0,0,1-.69-3.38,8.85,8.85,0,0,1,.62-3.38,4.9,4.9,0,0,1,1.86-2.33,5,5,0,0,1,2.78-.81,4.15,4.15,0,0,1,3.43,1.71V41.24h2.1V58.42ZM414,52.21a5.4,5.4,0,0,0,1,3.57A3,3,0,0,0,417.4,57a3,3,0,0,0,2.35-1.13,5.21,5.21,0,0,0,1-3.45,5.85,5.85,0,0,0-1-3.75,3,3,0,0,0-2.43-1.2A2.92,2.92,0,0,0,415,48.59,5.67,5.67,0,0,0,414,52.21Z"/><path class="cls-1" d="M428.55,58.42V56h2.4v2.4Z"/></svg>