<?xml version="1.0" encoding="utf-8"?>
<!-- Generator: Adobe Illustrator 16.0.0, SVG Export Plug-In . SVG Version: 6.00 Build 0)  -->
<!DOCTYPE svg PUBLIC "-//W3C//DTD SVG 1.1//EN" "http://www.w3.org/Graphics/SVG/1.1/DTD/svg11.dtd">
<svg version="1.1" id="圖層_2" xmlns="http://www.w3.org/2000/svg" xmlns:xlink="http://www.w3.org/1999/xlink" x="0px" y="0px"
	 width="876.666px" height="175.333px" viewBox="0 0 876.666 175.333" enable-background="new 0 0 876.666 175.333"
	 xml:space="preserve">
<g>
	<g>
		<g>
			<g>
				<g>
					<path fill="#FFFFFF" d="M243.011,157.747h-5.301c-2.381,0-4.313-1.934-4.313-4.313v-17.515h-3.487
						c-2.381,0-4.313-1.933-4.313-4.313v-4.449c0-2.38,1.932-4.313,4.313-4.313h20.884c2.381,0,4.313,1.933,4.313,4.313v4.449
						c0,2.38-1.932,4.313-4.313,4.313h-3.47v17.515C247.324,155.813,245.392,157.747,243.011,157.747z"/>
				</g>
				<g>
					<path fill="#FFFFFF" d="M277.247,157.747c-0.042-0.004-0.076,0-0.114,0h-5.773c-1.786,0-3.386-1.101-4.026-2.77l-1.23-3.201
						h-4.521l-1.134,3.128c-0.621,1.707-2.241,2.843-4.055,2.843h-5.626c-1.424,0-2.757-0.702-3.561-1.879
						c-0.803-1.177-0.974-2.673-0.458-3.999l10.232-26.275c0.643-1.656,2.24-2.749,4.018-2.749h5.615
						c1.764,0,3.35,1.073,4.004,2.709l10.179,25.43c0.483,0.695,0.764,1.541,0.764,2.45
						C281.56,155.813,279.628,157.747,277.247,157.747z"/>
				</g>
				<g>
					<path fill="#FFFFFF" d="M287.038,157.747h-5.307c-2.38,0-4.313-1.934-4.313-4.313v-26.276c0-2.38,1.932-4.313,4.313-4.313
						h5.307c2.382,0,4.313,1.933,4.313,4.313v26.276C291.351,155.813,289.42,157.747,287.038,157.747z"/>
				</g>
				<g>
					<path fill="#FFFFFF" d="M319.597,157.747h-5.626c-1.954,0-3.664-1.315-4.167-3.204l-1.062-3.977l-1.052,3.974
						c-0.503,1.89-2.216,3.207-4.17,3.207h-5.756c-1.996,0-3.731-1.371-4.195-3.312l-6.272-26.275
						c-0.306-1.286-0.008-2.639,0.809-3.676c0.819-1.035,2.066-1.64,3.386-1.64h5.43c2.025,0,3.776,1.41,4.212,3.387l0.155,0.696
						l0.232-0.879c0.503-1.89,2.213-3.204,4.167-3.204h6.312c1.977,0,3.701,1.345,4.184,3.264l0.143,0.569l0.098-0.446
						c0.436-1.977,2.188-3.387,4.212-3.387h5.34c1.322,0,2.572,0.606,3.389,1.647c0.82,1.039,1.115,2.399,0.804,3.682l-6.38,26.275
						C323.318,156.384,321.589,157.747,319.597,157.747z"/>
				</g>
				<g>
					<path fill="#FFFFFF" d="M352.418,157.747c-0.039-0.004-0.079,0-0.114,0h-5.773c-1.787,0-3.384-1.099-4.027-2.764l-1.232-3.207
						h-4.518l-1.134,3.128c-0.621,1.707-2.241,2.843-4.055,2.843h-5.626c-1.423,0-2.757-0.702-3.561-1.879
						c-0.803-1.177-0.973-2.673-0.457-3.999l10.231-26.275c0.644-1.656,2.241-2.749,4.018-2.749h5.61
						c1.763,0,3.347,1.073,4.003,2.709l10.185,25.43c0.482,0.695,0.764,1.541,0.764,2.45
						C356.731,155.813,354.8,157.747,352.418,157.747z"/>
				</g>
				<g>
					<path fill="#FFFFFF" d="M377.961,157.747h-5.324c-1.494,0-2.884-0.775-3.67-2.045l-2.607-4.223v1.954
						c0,2.38-1.932,4.313-4.313,4.313h-4.93c-2.382,0-4.313-1.934-4.313-4.313v-26.276c0-2.38,1.931-4.313,4.313-4.313h5.16
						c1.5,0,2.893,0.78,3.678,2.059l2.763,4.513v-2.259c0-2.38,1.932-4.313,4.313-4.313h4.931c2.381,0,4.313,1.933,4.313,4.313
						v26.276C382.274,155.813,380.342,157.747,377.961,157.747z"/>
				</g>
				<g>
					<path fill="#FFFFFF" d="M410.92,158.195c-3.482,0-6.613-0.77-9.306-2.285c-2.816-1.587-4.96-3.889-6.376-6.84
						c-1.306-2.726-1.969-5.708-1.969-8.862c0-3.456,0.756-6.604,2.247-9.35c1.555-2.895,3.866-5.144,6.858-6.68
						c2.289-1.183,5.068-1.782,8.258-1.782c4.201,0,7.644,0.979,10.227,2.914c2.673,1.988,4.42,4.751,5.176,8.204
						c0.232,1.073,0.047,2.193-0.512,3.133c0.592,0.739,0.946,1.678,0.946,2.696v10.467c0,1.168-0.472,2.283-1.311,3.098
						c-1.554,1.505-3.606,2.738-6.278,3.769C416.294,157.681,413.612,158.195,410.92,158.195z"/>
				</g>
				<g>
					<path fill="#FFFFFF" d="M447.64,157.747h-18.498c-2.38,0-4.313-1.934-4.313-4.313v-26.063c0-2.382,1.932-4.313,4.313-4.313
						h5.307c2.382,0,4.313,1.931,4.313,4.313v17.324h8.878c2.381,0,4.313,1.933,4.313,4.313v4.426
						C451.952,155.813,450.021,157.747,447.64,157.747z"/>
				</g>
				<g>
					<path fill="#FFFFFF" d="M473.349,157.747h-19.98c-2.382,0-4.313-1.934-4.313-4.313v-26.276c0-2.38,1.932-4.313,4.313-4.313
						h19.479c2.381,0,4.313,1.933,4.313,4.313v4.449c0,1.4-0.668,2.646-1.704,3.434c0.455,0.686,0.721,1.504,0.721,2.389v4.425
						c0,1.223-0.507,2.329-1.325,3.112c1.641,0.608,2.808,2.189,2.808,4.042v4.426C477.66,155.813,475.729,157.747,473.349,157.747z
						"/>
				</g>
				<g>
					<path fill="#FFFFFF" d="M500.697,157.747h-5.323c-1.494,0-2.884-0.775-3.671-2.045l-2.607-4.223v1.954
						c0,2.38-1.932,4.313-4.313,4.313h-4.931c-2.38,0-4.313-1.934-4.313-4.313v-26.276c0-2.38,1.933-4.313,4.313-4.313h5.161
						c1.499,0,2.892,0.78,3.678,2.059l2.764,4.513v-2.259c0-2.38,1.932-4.313,4.313-4.313h4.931c2.381,0,4.313,1.933,4.313,4.313
						v26.276C505.009,155.813,503.077,157.747,500.697,157.747z"/>
				</g>
				<g>
					<path fill="#FFFFFF" d="M519.958,158.195c-5.11,0-9.291-1.647-12.425-4.897c-3.097-3.192-4.67-7.516-4.67-12.842
						c0-3.269,0.529-6.122,1.57-8.479c0.812-1.822,1.923-3.457,3.31-4.874c1.401-1.455,3.024-2.583,4.805-3.331
						c2.165-0.913,4.636-1.375,7.337-1.375c5.065,0,9.234,1.656,12.394,4.919c3.117,3.215,4.7,7.595,4.7,13.017
						c0,5.369-1.569,9.725-4.66,12.943C529.173,156.542,525.018,158.195,519.958,158.195z M519.941,135.559
						c-1.19,0-1.698,0.385-2.068,0.802c-0.593,0.663-0.919,2.054-0.919,3.915c0,1.838,0.335,3.184,0.964,3.886
						c1.204,1.354,3.17,0.978,4.012,0.03c0.601-0.677,0.938-2.096,0.938-3.984c0-1.827-0.326-3.239-0.891-3.877
						C521.619,135.931,521.122,135.559,519.941,135.559z"/>
				</g>
				<g>
					<path fill="#FFFFFF" d="M571.718,157.747h-19.986c-2.381,0-4.313-1.934-4.313-4.313v-26.276c0-2.38,1.932-4.313,4.313-4.313
						h19.486c2.38,0,4.313,1.933,4.313,4.313v4.449c0,1.402-0.672,2.65-1.707,3.436c0.455,0.686,0.719,1.506,0.719,2.387v4.425
						c0,1.223-0.509,2.325-1.325,3.108c1.642,0.612,2.813,2.193,2.813,4.046v4.426C576.031,155.813,574.098,157.747,571.718,157.747
						z"/>
				</g>
				<g>
					<path fill="#FFFFFF" d="M599.06,157.747h-5.324c-1.492,0-2.883-0.775-3.669-2.045l-2.608-4.223v1.954
						c0,2.38-1.932,4.313-4.313,4.313h-4.932c-2.381,0-4.313-1.934-4.313-4.313v-26.276c0-2.38,1.932-4.313,4.313-4.313h5.167
						c1.499,0,2.892,0.78,3.678,2.059l2.764,4.513v-2.259c0-2.38,1.932-4.313,4.313-4.313h4.925c2.381,0,4.313,1.933,4.313,4.313
						v26.276C603.373,155.813,601.441,157.747,599.06,157.747z"/>
				</g>
				<g>
					<path fill="#FFFFFF" d="M617.838,157.747h-5.306c-2.381,0-4.313-1.934-4.313-4.313v-17.515h-3.482
						c-2.381,0-4.313-1.933-4.313-4.313v-4.449c0-2.38,1.932-4.313,4.313-4.313h20.879c2.381,0,4.313,1.933,4.313,4.313v4.449
						c0,2.38-1.932,4.313-4.313,4.313h-3.465v17.515C622.152,155.813,620.22,157.747,617.838,157.747z"/>
				</g>
				<g>
					<path fill="#FFFFFF" d="M636.292,157.747h-5.308c-2.381,0-4.313-1.934-4.313-4.313v-26.276c0-2.38,1.932-4.313,4.313-4.313
						h8.513c4.774,0,6.436,0.273,7.43,0.542c2.424,0.632,4.481,2.02,6.085,4.114c1.604,2.077,2.417,4.686,2.417,7.737
						c0,2.312-0.465,4.36-1.383,6.093c-0.913,1.72-2.12,3.103-3.592,4.119c-1.356,0.941-2.802,1.59-4.285,1.91
						c-1.451,0.289-3.26,0.44-5.564,0.469v5.604C640.605,155.813,638.672,157.747,636.292,157.747z"/>
				</g>
				<g>
					<path fill="#FFFFFF" d="M657.688,157.747h-5.038c-2.381,0-4.313-1.934-4.313-4.313v-5.038c0-2.381,1.932-4.312,4.313-4.312
						h5.038c2.38,0,4.313,1.931,4.313,4.312v5.038C662,155.813,660.068,157.747,657.688,157.747z"/>
				</g>
				<g>
					<path fill="#FFFFFF" d="M688.855,158.195c-4.721,0-8.672-1.661-11.748-4.938c-3.01-3.184-4.544-7.469-4.544-12.729
						c0-5.488,1.534-9.908,4.558-13.135c3.092-3.313,7.148-4.997,12.054-4.997c4.338,0,7.972,1.355,10.799,4.034
						c1.747,1.639,3.055,3.926,3.872,6.779c0.323,1.131,0.172,2.346-0.424,3.36c-0.593,1.017-1.575,1.746-2.718,2.021l-4.649,1.112
						l5.014,1.589c2.208,0.7,3.469,3.017,2.856,5.251c-1.036,3.785-2.878,6.705-5.479,8.682
						C695.846,157.198,692.619,158.195,688.855,158.195z M688.905,135.559c-0.798,0-1.148,0.221-1.482,0.605
						c-0.126,0.149-0.764,1.03-0.764,3.971c0,3.308,0.688,4.215,0.767,4.307c0.511,0.607,1.729,0.699,2.156,0.329
						c0.082-0.069,0.505-0.505,0.835-1.957c0.269-1.175,1.015-2.185,2.063-2.782c0.193-0.112,0.396-0.208,0.604-0.287
						c-0.315-0.104-0.621-0.246-0.907-0.424c-0.977-0.605-1.673-1.577-1.932-2.698c-0.136-0.584-0.343-0.753-0.441-0.83
						C689.716,135.72,689.511,135.559,688.905,135.559z"/>
				</g>
				<g>
					<path fill="#FFFFFF" d="M717.972,158.195c-5.105,0-9.283-1.646-12.422-4.891c-3.101-3.199-4.673-7.522-4.673-12.849
						c0-3.269,0.528-6.122,1.57-8.479c0.803-1.807,1.911-3.44,3.302-4.866c1.426-1.475,3.052-2.601,4.823-3.342
						c2.151-0.91,4.622-1.372,7.325-1.372c5.065,0,9.235,1.656,12.395,4.919c3.116,3.215,4.7,7.595,4.7,13.017
						c0,5.374-1.569,9.732-4.664,12.947C727.187,156.542,723.031,158.195,717.972,158.195z M717.954,135.559
						c-1.19,0-1.698,0.385-2.068,0.802c-0.344,0.383-0.914,1.399-0.914,3.915c0,1.845,0.332,3.187,0.959,3.886
						c1.206,1.354,3.172,0.978,4.012,0.03c0.6-0.677,0.938-2.096,0.938-3.984c0-1.83-0.323-3.245-0.885-3.877
						C719.639,135.937,719.14,135.559,717.954,135.559z"/>
				</g>
				<g>
					<path fill="#FFFFFF" d="M741.764,157.747h-5.031c-2.381,0-4.313-1.934-4.313-4.313v-5.038c0-2.381,1.932-4.312,4.313-4.312
						h5.031c2.382,0,4.313,1.931,4.313,4.312v5.038C746.077,155.813,744.146,157.747,741.764,157.747z"/>
				</g>
				<g>
					<path fill="#FFFFFF" d="M749.323,163.608c-1.623,0-3.162-0.917-3.895-2.458l-0.988-2.078c-0.531-1.118-0.56-2.409-0.072-3.547
						c0.092-0.217,0.201-0.423,0.328-0.621c-0.169-0.457-0.259-0.954-0.259-1.471v-5.038c0-2.381,1.932-4.312,4.313-4.312h5.036
						c2.382,0,4.313,1.931,4.313,4.312V152c0,1.874-0.18,3.397-0.551,4.662c-0.475,1.586-1.342,2.979-2.58,4.166
						c-1.154,1.102-2.564,1.945-4.2,2.529C750.292,163.527,749.803,163.608,749.323,163.608z"/>
				</g>
				<g>
					<path fill="#FFFFFF" d="M792.676,157.747h-18.498c-2.381,0-4.313-1.934-4.313-4.313v-26.063c0-2.382,1.932-4.313,4.313-4.313
						h5.308c2.38,0,4.313,1.931,4.313,4.313v17.324h8.878c2.381,0,4.313,1.933,4.313,4.313v4.426
						C796.989,155.813,795.057,157.747,792.676,157.747z"/>
				</g>
				<g>
					<path fill="#FFFFFF" d="M806.9,157.747h-5.307c-2.38,0-4.312-1.934-4.312-4.313v-17.515h-3.482
						c-2.381,0-4.313-1.933-4.313-4.313v-4.449c0-2.38,1.932-4.313,4.313-4.313h20.879c2.381,0,4.313,1.933,4.313,4.313v4.449
						c0,2.38-1.933,4.313-4.313,4.313h-3.465v17.515C811.213,155.813,809.281,157.747,806.9,157.747z"/>
				</g>
				<g>
					<path fill="#FFFFFF" d="M830.015,157.747h-9.985c-2.381,0-4.313-1.934-4.313-4.313v-26.276c0-2.38,1.932-4.313,4.313-4.313
						h9.698c2.611,0,4.639,0.22,6.196,0.668c2.289,0.675,4.263,1.882,5.892,3.592c1.533,1.62,2.699,3.583,3.468,5.837
						c0.732,2.151,1.089,4.639,1.089,7.604c0,2.63-0.351,4.984-1.044,6.997c-0.87,2.544-2.179,4.675-3.884,6.332
						c-1.409,1.366-3.233,2.411-5.424,3.11C834.406,157.499,832.444,157.747,830.015,157.747z M829.65,135.952v8.74
						c2.092-0.022,1.8-0.109,1.83-0.112c0.154,0,0.281-0.207,0.436-0.716c0.126-0.412,0.346-1.459,0.346-3.55
						c0-2.127-0.225-3.043-0.32-3.338c-0.19-0.575-0.371-0.752-0.379-0.759C831.21,136.097,830.767,135.999,829.65,135.952z"/>
				</g>
				<g>
					<path fill="#FFFFFF" d="M853.504,157.747h-5.036c-2.382,0-4.313-1.934-4.313-4.313v-5.038c0-2.381,1.932-4.312,4.313-4.312
						h5.036c2.382,0,4.313,1.931,4.313,4.312v5.038C857.817,155.813,855.886,157.747,853.504,157.747z"/>
				</g>
			</g>
		</g>
		<g>
			<g>
				<g>
					<g>
						<g>
							<path fill="#FFFFFF" d="M64.173,157.712c-0.04-0.005-0.073-0.003-0.116,0H18.492c-1.539,0-2.962-0.82-3.734-2.153
								c-0.77-1.335-0.773-2.978-0.003-4.313l49.468-85.897c2.873-4.987,8.022-7.966,13.773-7.966c6.082,0,11.54,3.38,14.244,8.822
								l5.889,10.232c0.763,1.331,0.763,2.971-0.003,4.302l-32.57,56.535c-2.322,4.032-1.825,9.138,1.168,12.647
								c1.07,0.785,1.763,2.051,1.763,3.479C68.486,155.781,66.554,157.712,64.173,157.712z M25.953,149.086h30.569
								c-1.766-5.236-1.312-11.139,1.559-16.12l31.333-54.384l-4.757-8.275c-2.67-5.346-10.249-5.351-12.958-0.651L25.953,149.086z"
								/>
						</g>
					</g>
					<g>
						<g>
							<path fill="#FFFFFF" d="M180.838,157.712c-0.04-0.005-0.073-0.003-0.115,0H81.601c-5.955,0-11.195-3.137-14.014-8.391
								c-2.813-5.256-2.524-11.352,0.775-16.313l5.927-10.209c0.772-1.328,2.193-2.145,3.729-2.145l0,0l65.249,0.011
								c4.874,0,9.224-3.269,10.574-7.946c0.48-1.662,1.906-2.877,3.625-3.086c1.735-0.174,3.397,0.632,4.256,2.129l22.306,38.736
								c0.699,0.764,1.123,1.782,1.123,2.901C185.151,155.781,183.219,157.712,180.838,157.712z M80.5,129.28l-4.779,8.223
								c-1.707,2.585-1.839,5.305-0.534,7.745c1.309,2.438,3.648,3.839,6.413,3.839h91.662L158.01,122.6
								c-3.656,4.142-8.994,6.691-14.744,6.691L80.5,129.28z"/>
						</g>
					</g>
					<g>
						<g>
							<path fill="#FFFFFF" d="M139.083,120.122c-0.354,0-0.717-0.009-1.073-0.031l-11.799-0.043
								c-1.536-0.005-2.954-0.828-3.72-2.161l-32.559-56.55c-2.398-4.172-7.602-6.329-12.156-5.203
								c-1.696,0.413-3.448-0.216-4.484-1.601c-1.039-1.384-1.148-3.254-0.281-4.75L95.873,10.38
								c0.772-1.331,2.193-2.147,3.731-2.147c0.002,0,0.006,0,0.006,0c1.542,0.002,2.962,0.825,3.731,2.159l49.468,85.895
								c2.87,4.983,2.864,10.922-0.011,15.89C149.927,117.148,144.8,120.122,139.083,120.122z M128.727,111.431l9.507,0.037
								l0.849,4.34v-4.313c2.597,0,4.933-1.361,6.25-3.64c1.314-2.271,1.314-4.986,0.003-7.263L99.591,21.162L84.26,47.584
								c5.475,1.109,10.313,4.521,13.149,9.451L128.727,111.431z"/>
						</g>
					</g>
				</g>
				<g>
					<path fill="#FFFFFF" d="M108.607,120.122H90.558c-3.063,0-5.804-1.584-7.331-4.24c-1.53-2.656-1.527-5.823,0.011-8.478
						l9.078-15.607c1.533-2.638,4.271-4.212,7.32-4.212c3.066,0,5.809,1.586,7.334,4.239l8.977,15.615
						c1.524,2.645,1.521,5.807-0.009,8.453C114.408,118.541,111.667,120.122,108.607,120.122z M108.607,111.496v4.313l0.003-4.313
						H108.607z M99.493,96.123l-8.795,15.614l17.727-0.238L99.493,96.123z"/>
				</g>
			</g>
		</g>
		<g>
			<g>
				<path fill="#FFFFFF" d="M249.506,114c-1.777,0-3.415-1.104-4.046-2.83c-0.45-1.222-1.272-2.827-1.958-3.872
					c-0.466,0.907-0.926,1.792-1.381,2.648c-0.579,1.086-1.592,1.876-2.786,2.167c-1.196,0.301-2.454,0.063-3.471-0.637
					l-6.452-4.442c-1.893-1.303-2.432-3.863-1.224-5.817c2.294-3.716,5.837-10.209,8.937-16.9c-2.019-1.724-5.414-4.1-8.688-6.043
					c-1.095-0.651-1.845-1.749-2.052-3.004c-0.208-1.255,0.148-2.539,0.975-3.504l4.262-4.992c1.053-1.235,2.693-1.735,4.207-1.412
					c-1.438-1.067-2.982-2.128-4.42-3.021c-1.089-0.677-1.822-1.803-1.996-3.072c-0.177-1.269,0.222-2.552,1.083-3.499l4.442-4.869
					c1.361-1.485,3.568-1.845,5.318-0.842c3.476,1.974,8.261,5.174,11.026,7.668c1.884-1.581,5.346-4.838,7.724-8.225
					c1.079-1.541,3.016-2.204,4.821-1.637l7.368,2.313c1.095,0.343,1.994,1.104,2.519,2.094l0.982-0.564
					c1.755-1.011,3.981-0.657,5.343,0.842l2.673,2.923c3.125,3.408,6.668,7.272,8.735,9.928c0.743,0.96,1.05,2.19,0.843,3.389
					c-0.209,1.196-0.914,2.249-1.938,2.9l-0.581,0.368c0.623,0.657,1.056,1.482,1.157,2.387c0.092,0.823,0.185,1.836,0.275,2.844
					c0.09,0.994,0.18,1.982,0.267,2.735c0.244,2.061-1.017,4.004-2.997,4.622c-0.048,0.014-0.095,0.028-0.143,0.042
					c0.143,0.778,0.074,1.604-0.244,2.389c-1.514,3.741-3.504,7.127-5.953,10.122c2.064,0.48,4.24,0.863,6.56,1.149
					c1.604,0.196,2.962,1.274,3.521,2.791c0.557,1.517,0.22,3.219-0.872,4.405c-0.969,1.056-2.563,3.563-3.412,5.368
					c-0.823,1.753-2.718,2.727-4.619,2.422c-5.65-0.953-10.979-2.583-15.875-4.862c-4.863,2.312-10.471,4.102-17.069,5.439
					C250.079,113.971,249.792,114,249.506,114z M245.112,70.731c0.772,0.531,1.511,1.065,2.185,1.592
					c-0.081-0.196-0.151-0.401-0.202-0.609c-0.104-0.418-0.287-1.042-0.508-1.744C246.148,70.319,245.645,70.577,245.112,70.731z"/>
			</g>
			<g>
				<path fill="#FFFFFF" d="M315.572,113.697c-0.051,0-0.099,0-0.149-0.003c-1.305-0.045-2.518-0.677-3.302-1.721
					c-0.796-1.067-3.369-3.479-4.366-4.097c-0.534-0.331-0.982-0.773-1.322-1.286c-0.635,1.247-1.272,2.471-1.907,3.66
					c-0.575,1.084-1.586,1.871-2.776,2.166c-1.182,0.287-2.448,0.063-3.465-0.63l-5.784-3.953c-1.882-1.285-2.438-3.815-1.269-5.771
					c2.358-3.945,5.972-10.767,9.004-17.558c-1.785-1.242-4.813-3.128-9.021-5.619c-1.007-0.598-1.732-1.583-1.999-2.727
					c-0.269-1.143-0.06-2.347,0.579-3.333l3.594-5.543c1.23-1.898,3.715-2.53,5.7-1.429l0.315,0.171
					c-1.716-1.401-3.666-2.906-5.179-4.071c-0.932-0.719-1.636-1.871-1.763-3.039c-0.126-1.168,0.124-2.42,0.881-3.321l4.201-4.993
					c1.432-1.696,3.914-2.033,5.742-0.777l1.078,0.741c0.918,0.626,1.904,1.303,2.892,1.991c0.783-0.8,1.875-1.297,3.083-1.297
					h11.729c0.499-1.825,2.173-3.167,4.158-3.167h7.245c1.985,0,3.658,1.342,4.158,3.167h12.099c2.381,0,4.313,1.932,4.313,4.313
					v5.172c0,1.32-0.593,2.502-1.528,3.293v2.993c1.671,0.595,2.863,2.19,2.863,4.063v5.174c0,2.381-1.931,4.313-4.313,4.313h-0.376
					v21.558c0,3.424-0.623,7.642-5.488,9.887c-3.08,1.332-6.723,1.43-11.543,1.43c-2.115,0-3.915-1.53-4.256-3.617
					c-0.203-1.231-0.947-3.344-1.732-4.91c-0.166-0.331-0.287-0.677-0.363-1.031h-3.936c-1.084,3.288-2.603,6.074-4.533,8.307
					C318.014,113.152,316.821,113.697,315.572,113.697z"/>
			</g>
			<g>
				<path fill="#FFFFFF" d="M411.885,111.934h-51.742c-2.382,0-4.313-1.933-4.313-4.313v-6.514c0-2.381,1.932-4.313,4.313-4.313
					h2.257V82.895c-1.763,0.306-3.608-0.525-4.515-2.171c-0.848-1.544-2.622-3.751-4.038-5.023
					c-1.109-1.002-1.626-2.507-1.356-3.979c0.267-1.472,1.277-2.698,2.67-3.243c11.377-4.453,21.137-11.56,26.107-19.015
					c1.202-1.802,3.561-2.437,5.504-1.471l6.514,3.226c1.16,0.573,2.001,1.64,2.288,2.903c0.154,0.671,0.143,1.359-0.02,2.011
					c7.154,6.674,14.595,9.897,21.048,12.168c1.451,0.512,2.519,1.755,2.805,3.266c0.286,1.51-0.253,3.06-1.415,4.065
					c-1.343,1.16-2.823,3.17-3.37,4.574c-0.424,1.092-1.277,1.965-2.358,2.417c-0.514,0.213-1.059,0.323-1.604,0.331v5.975
					c0,2.382-1.932,4.313-4.313,4.313h-11.945v3.549h17.482c2.381,0,4.313,1.933,4.313,4.313v6.514
					C416.198,110.001,414.266,111.934,411.885,111.934z M375.574,75.884c1.263,0.533,2.224,1.651,2.533,3.018v-4.756
					C377.279,74.735,376.433,75.317,375.574,75.884z M394.403,78.105h5.33c-1.755-0.994-3.532-2.092-5.33-3.333V78.105z"/>
			</g>
			<g>
				<path fill="#FFFFFF" d="M452.744,113.635h-7.182c-2.382,0-4.313-1.933-4.313-4.313V106.8c-4.097,2.232-9.05,4.136-13.885,5.263
					c-1.842,0.432-3.715-0.376-4.675-1.978c-0.69-1.147-2.325-3.218-3.478-4.275c-1.233-1.13-1.702-2.865-1.208-4.459
					c0.314-1.017,0.985-1.856,1.856-2.392c-1.095-0.784-1.808-2.064-1.808-3.515v-5.963c0-2.382,1.931-4.313,4.313-4.313h1.353
					v-2.218c-1.766-0.539-3.05-2.182-3.05-4.125v-5.48c0-0.472,0.077-0.927,0.217-1.354c-1.589-0.635-2.71-2.188-2.71-4.004v-5.66
					c0-2.381,1.932-4.313,4.313-4.313h1.292c-0.194-0.334-0.394-0.668-0.596-1.002c-0.68-1.121-0.812-2.491-0.36-3.72
					c0.452-1.23,1.441-2.188,2.682-2.604l6.205-2.072c1.803-0.59,3.777,0.042,4.877,1.586c0.018,0.022,0.034,0.045,0.048,0.067
					c0.744-1.303,2.142-2.179,3.749-2.179h6.699c0.84,0,1.62,0.239,2.282,0.654c0.663-0.415,1.443-0.654,2.282-0.654h6.818
					c1.589,0,2.976,0.859,3.726,2.139c1.002-1.289,2.692-1.938,4.368-1.542l7.609,1.766c1.349,0.312,2.466,1.252,3.002,2.527
					c0.537,1.275,0.428,2.732-0.288,3.914l-0.388,0.637c-0.099,0.16-0.197,0.32-0.293,0.48c2.37,0.014,4.288,1.94,4.288,4.313v5.66
					c0,1.755-1.047,3.266-2.553,3.94c0.154,0.443,0.238,0.921,0.238,1.418v5.48c0,1.873-1.193,3.465-2.858,4.061v2.283h1.046
					c2.38,0,4.313,1.931,4.313,4.313v5.963c0,2.046-1.424,3.758-3.33,4.201c0.286,0.142,0.562,0.276,0.822,0.405
					c1.325,0.662,2.218,1.962,2.364,3.439c0.144,1.474-0.479,2.923-1.653,3.829l-5.11,3.954c-1.38,1.069-3.257,1.198-4.773,0.337
					c-2.606-1.482-7.483-3.76-11.939-5.7v3.412C457.057,111.703,455.125,113.635,452.744,113.635z"/>
			</g>
			<g>
				<path fill="#FFFFFF" d="M489.701,113.574c-1.02,0-2.019-0.363-2.812-1.042c-0.727-0.626-3.17-1.985-4.582-2.555
					c-2.179-0.877-3.257-3.336-2.423-5.532c3.071-8.09,3.071-20.918,3.071-27.812V54.536c0-2.38,1.933-4.313,4.313-4.313h19.177
					c1.57,0,2.945,0.84,3.698,2.095c0.764-1.222,2.117-2.036,3.664-2.036h20.458c2.381,0,4.313,1.932,4.313,4.313v11.346
					c0.262-0.04,0.495-0.087,0.62-0.126c1.245-0.371,2.575-0.185,3.648,0.522c1.077,0.71,1.779,1.867,1.914,3.15l0.206,2.339
					c0.092,1.151,0.185,2.336,0.321,3.268c0.245,1.673-0.507,3.293-1.854,4.204c0.114,0.598,0.104,1.232-0.057,1.858
					c-1.487,5.911-3.942,11.176-7.316,15.716c1.85,0.71,3.815,1.312,5.887,1.8c1.539,0.362,2.755,1.536,3.174,3.06
					c0.415,1.522-0.034,3.154-1.174,4.246c-1.168,1.123-2.972,3.577-3.785,5.146c-0.941,1.813-3.013,2.718-4.984,2.174
					c-4.372-1.213-8.409-2.945-12.036-5.158c-3.493,1.943-7.428,3.552-11.939,4.895c-1.921,0.572-3.928-0.259-4.925-1.906
					c-2.674,1.745-6.175,1.9-9.816,1.9c-1.244,0-2.376-0.531-3.167-1.385c-0.587,0.888-1.491,1.536-2.547,1.8
					C490.403,113.532,490.052,113.574,489.701,113.574z M523.249,98.743c0.535,0,1.072,0.101,1.58,0.3
					c-0.006-0.03-0.009-0.059-0.014-0.087c-0.037-0.267-0.048-0.53-0.034-0.792c-0.888,0.323-1.861,0.349-2.763,0.063
					c0,0.224-0.017,0.452-0.051,0.676c-0.003,0.012-0.003,0.026-0.005,0.037C522.38,98.807,522.817,98.743,523.249,98.743z
					 M521.1,74.39h2.997c-0.542-1.435-0.758-2.931-0.845-4.251C522.693,71.661,521.977,73.079,521.1,74.39z"/>
			</g>
			<g>
				<path fill="#FFFFFF" d="M561.059,113.456h-7.121c-2.38,0-4.313-1.933-4.313-4.313v-21.89c-0.115-0.014-0.229-0.031-0.345-0.054
					c-1.48-0.288-2.701-1.327-3.224-2.739c-0.599-1.621-2.396-5.204-3.341-6.509c-1.247-1.716-1.059-4.083,0.44-5.582
					c5.166-5.167,10.094-13.292,12.859-21.205c0.772-2.209,3.156-3.395,5.392-2.681l6.816,2.193
					c1.025,0.328,1.887,1.028,2.421,1.954c1.005-1.401,2.809-2.12,4.574-1.662l3.869,0.991c0.752-1.26,2.128-2.103,3.704-2.103
					h10.898c2.006,0,3.746,1.382,4.201,3.336c1.566,6.725,5.17,12.868,9.4,16.033c0.93,0.696,1.542,1.738,1.693,2.892
					c0.151,1.151-0.169,2.316-0.888,3.229c-1.033,1.311-2.979,4.594-3.85,6.705c-0.435,1.058-1.269,1.89-2.302,2.328
					c-0.792,16.631-1.623,21.382-3.926,24.239c-2.075,2.921-4.85,3.743-7.02,4.109c-1.721,0.333-4.526,0.454-7.735,0.296
					c-2.156-0.094-3.908-1.771-4.103-3.922c-0.084-0.943-0.301-2.016-0.578-2.951c-2.273,2.593-5,4.757-8.229,6.573
					c-1.943,1.098-4.383,0.517-5.646-1.283C563.946,112.65,562.598,113.456,561.059,113.456z M583.673,98
					c0.564,0.034,1.089,0.055,1.559,0.063c0.121-0.952,0.34-2.9,0.587-6.43C585.234,93.927,584.521,96.044,583.673,98z
					 M565.372,83.633v13.661c2.561-2.19,4.272-5.165,5.317-9.225h-0.438c-2.317,0-4.207-1.825-4.308-4.116
					C565.745,83.864,565.554,83.754,565.372,83.633z M553.938,74.146c0.47,0,0.941,0.075,1.401,0.233
					c0.525,0.183,1,0.458,1.407,0.806v-6.164c-1.193,1.845-2.451,3.6-3.746,5.228C553.306,74.18,553.621,74.146,553.938,74.146z
					 M579.054,72.748h9.839c-1.353-2.322-2.577-4.79-3.634-7.326h-2.467h-0.004C581.682,68.002,580.427,70.459,579.054,72.748z"/>
			</g>
			<g>
				<path fill="#FFFFFF" d="M622.736,114c-0.225,0-0.452-0.016-0.677-0.053c-1.219-0.194-2.294-0.897-2.96-1.937
					c-0.744-1.169-3.088-3.696-3.916-4.224c-1.146-0.732-1.882-1.96-1.983-3.315c-0.101-1.354,0.444-2.678,1.467-3.569
					c2.605-2.272,3.6-5.353,3.97-8.646c-0.185,0.135-0.37,0.267-0.559,0.395c-0.948,0.663-2.123,0.919-3.26,0.698
					c-1.137-0.214-2.143-0.877-2.786-1.837c-0.873-1.303-2.892-3.679-4.149-4.886c-0.946-0.904-1.429-2.193-1.314-3.499
					c0.118-1.303,0.82-2.485,1.913-3.209c3.335-2.212,6.461-5.295,9.229-9.077h-5.447c-2.381,0-4.313-1.932-4.313-4.313v-6.817
					c0-2.381,1.932-4.313,4.313-4.313h13.304c0.469-1.371,0.893-2.757,1.289-4.195c0.608-2.227,2.872-3.574,5.115-3.066l7.492,1.704
					c1.179,0.27,2.192,1.022,2.791,2.075c0.598,1.053,0.727,2.308,0.354,3.459c-0.003,0.009-0.003,0.014-0.006,0.022h23.661
					c2.382,0,4.313,1.932,4.313,4.313v6.817c0,2.381-1.931,4.313-4.313,4.313h-2.532c0.02,0.163,0.028,0.328,0.028,0.497v30.071
					c0,2.415,0,8.07-5.751,10.588c-2.999,1.464-6.732,1.576-12.506,1.576c-2.134,0-3.945-1.559-4.265-3.667
					c-0.23-1.531-1.07-4.192-1.828-5.81c-0.331-0.702-0.458-1.463-0.394-2.209h-6.25c-1.563,4.699-4.01,8.437-7.291,11.132
					C624.696,113.658,623.727,114,622.736,114z M623.162,78.164c0.539,0,1.081,0.102,1.598,0.307
					c0.556,0.221,1.045,0.55,1.452,0.957v-1.699c0-1.423,0.688-2.684,1.751-3.47c-0.21-0.23-0.398-0.483-0.558-0.761
					c-0.184-0.312-0.32-0.64-0.417-0.98c-1.269,2.013-2.618,3.903-4.048,5.652C623.014,78.167,623.09,78.164,623.162,78.164z"/>
			</g>
			<g>
				<path fill="#FFFFFF" d="M699.142,113.758c-0.488,0-0.977-0.082-1.446-0.249c-1.235-0.442-2.203-1.419-2.631-2.659
					c-0.404-1.172-1.679-3.527-2.313-4.276c-0.809-0.955-1.166-2.22-0.968-3.457c0.192-1.241,0.917-2.333,1.984-2.996
					c0.679-0.421,0.758-1.134,0.758-1.631v-0.253c-1.263,0.634-2.583,0.946-3.672,1.148c-1.02,0.166-2.062,0.219-3.348,0.225v9.532
					c0,2.381-1.932,4.313-4.313,4.313h-6.329c-2.381,0-4.313-1.933-4.313-4.313V54.78c0-2.381,1.932-4.313,4.313-4.313l14.163-0.106
					c1.159-0.365,2.409-0.225,3.45,0.376l1.505,0.87c0.761-0.674,1.762-1.081,2.855-1.081h27.518c2.38,0,4.313,1.932,4.313,4.313
					v27.944c0,0.062,0,0.126-0.004,0.188l2.4,2.62c0.813,0.885,1.216,2.064,1.121,3.26c-0.097,1.195-0.686,2.297-1.626,3.038
					c-1.538,1.216-3.153,2.433-4.726,3.562c1.572,1.434,3.302,2.585,5.178,3.438c1.328,0.606,2.26,1.842,2.477,3.286
					c0.216,1.446-0.312,2.9-1.404,3.868c-1.188,1.051-3.049,3.484-3.833,5.009c-0.532,1.036-1.46,1.814-2.574,2.154
					c-1.112,0.343-2.325,0.214-3.342-0.345c-2.496-1.377-4.753-3.039-6.789-5.016c-0.491,0.422-1.081,0.739-1.746,0.909
					c-10.417,2.671-13.286,3.673-14.385,4.355C700.726,113.54,699.937,113.758,699.142,113.758z"/>
			</g>
			<g>
				<path fill="#FFFFFF" d="M784.562,113.574c-0.475,0-0.946-0.079-1.404-0.236c-1.126-0.388-2.041-1.225-2.53-2.312
					c-0.445-0.991-0.997-2.068-1.625-3.215c-25.854,2.039-30.336,2.46-32.646,3.309c-1.098,0.406-2.325,0.342-3.379-0.175
					c-1.055-0.514-1.854-1.438-2.212-2.555c-0.598-1.855-1.858-5.416-2.713-7.073c-0.595-1.157-0.634-2.519-0.111-3.709
					c0.522-1.191,1.556-2.081,2.807-2.427c0.919-0.249,2.436-1.853,4.039-3.616c1.969-2.019,8.532-10.72,13.272-19.994
					c-3.605,5.535-7.674,10.631-11.706,14.548c-0.843,0.822-2.008,1.274-3.167,1.215c-1.18-0.045-2.285-0.569-3.065-1.451
					c-1.285-1.449-4.328-4.422-5.923-5.7c-1.008-0.808-1.601-2.026-1.614-3.318c-0.015-1.292,0.55-2.521,1.539-3.35
					c5.978-5.018,11.978-13.424,15.288-21.42c0.859-2.075,3.187-3.131,5.31-2.455l5.978,1.933c0.764-1.21,2.114-2.016,3.652-2.016
					h15.343c1.896,0,3.566,1.235,4.122,3.046c2.532,8.241,7.805,15.62,13.77,19.256c1.14,0.696,1.896,1.881,2.041,3.209
					c0.146,1.331-0.334,2.65-1.297,3.58c-1.367,1.314-3.684,4.411-4.678,6.247c-0.599,1.109-1.654,1.901-2.887,2.168
					c-1.23,0.264-2.521-0.022-3.524-0.789c-6.289-4.802-11.882-12.052-15.937-20.607h-6.953c-0.86,0-1.664-0.252-2.337-0.688
					c-0.563,1.022-1.144,2.036-1.742,3.043c1.19-0.946,2.839-1.224,4.341-0.604l8.464,3.529c1.143,0.478,2.023,1.421,2.423,2.588
					c0.398,1.171,0.274,2.457-0.337,3.53c-1.064,1.864-2.186,3.726-3.354,5.571l4.937-2.255c1.859-0.851,4.06-0.278,5.265,1.365
					c5.164,7.011,10.863,15.873,13.856,21.547c0.536,1.012,0.646,2.193,0.306,3.288c-0.336,1.093-1.095,2.005-2.105,2.538
					l-7.491,3.954C785.948,113.405,785.255,113.574,784.562,113.574z M747.361,101.163c0.104,0.275,0.205,0.545,0.304,0.812
					c1.216-0.19,2.748-0.379,4.801-0.593c-0.572-0.41-1.044-0.96-1.367-1.619c-0.283-0.588-0.427-1.22-0.433-1.846
					C749.529,99.156,748.464,100.255,747.361,101.163z M781.4,98.984c0.856,0,1.682,0.255,2.379,0.716
					c-0.688-1.098-1.407-2.222-2.147-3.354c0.01,0.689-0.144,1.381-0.465,2.019c-0.117,0.233-0.256,0.452-0.409,0.656
					c0.101-0.008,0.202-0.014,0.306-0.022C781.176,98.99,781.287,98.984,781.4,98.984z M767.459,89.109
					c-0.921,1.295-1.859,2.569-2.809,3.815l5.054-0.331c-0.595-0.896-1.184-1.76-1.76-2.58
					C767.745,89.729,767.583,89.426,767.459,89.109z"/>
			</g>
			<g>
				<path fill="#FFFFFF" d="M840.14,113.405l-1.74-0.012c-2.172-0.025-3.984-1.659-4.235-3.815
					c-0.188-1.624-1.146-4.765-1.971-6.464c-0.021-0.045-0.043-0.087-0.063-0.132l-13.354,0.073c0,2.381-1.932,4.313-4.313,4.313
					H807.4c-2.38,0-4.313-1.932-4.313-4.313V78.094c0-0.121,0.007-0.239,0.015-0.357c-1.8-0.519-3.12-2.179-3.12-4.147v-6.332
					c0-0.581,0.115-1.137,0.326-1.646c-0.585-0.736-0.933-1.665-0.933-2.676v-6.879c0-2.381,1.932-4.313,4.313-4.313h49.917
					c2.381,0,4.313,1.932,4.313,4.313v44.016c0,4.285-0.686,8.999-5.766,11.484C849.176,113.084,845.188,113.405,840.14,113.405z
					 M841.24,97.091c0.217-0.003,0.424,0.002,0.623,0v-19.57c-0.205,0.093-0.419,0.171-0.638,0.23
					c0.009,0.113,0.015,0.228,0.015,0.343V97.091z"/>
			</g>
		</g>
	</g>
	<g>
		<g>
			<g>
				<g>
					<path fill="#3D3A39" d="M237.71,153.433v-21.827h-7.8v-4.449h20.884v4.449h-7.783v21.827H237.71z"/>
				</g>
				<g>
					<path fill="#3D3A39" d="M277.133,153.433h-5.773l-2.291-5.97h-10.507l-2.167,5.97h-5.626l10.231-26.276h5.615L277.133,153.433z
						 M267.366,143.039l-3.622-9.749l-3.549,9.749H267.366z"/>
				</g>
				<g>
					<path fill="#3D3A39" d="M281.731,153.433v-26.276h5.307v26.276H281.731z"/>
				</g>
				<g>
					<path fill="#3D3A39" d="M297.764,153.433l-6.272-26.276h5.43l3.965,18.05l4.801-18.05h6.312l4.605,18.353l4.032-18.353h5.34
						l-6.379,26.276h-5.626l-5.234-19.644l-5.217,19.644H297.764z"/>
				</g>
				<g>
					<path fill="#3D3A39" d="M352.303,153.433h-5.773l-2.297-5.97h-10.501l-2.168,5.97h-5.626l10.231-26.276h5.61L352.303,153.433z
						 M342.532,143.039l-3.622-9.749l-3.55,9.749H342.532z"/>
				</g>
				<g>
					<path fill="#3D3A39" d="M357.116,153.433v-26.276h5.16l10.754,17.55v-17.55h4.931v26.276h-5.324l-10.591-17.134v17.134H357.116
						z"/>
				</g>
				<g>
					<path fill="#3D3A39" d="M410.722,143.774v-4.431h11.434v10.467c-1.113,1.079-2.718,2.028-4.83,2.843
						c-2.105,0.819-4.245,1.229-6.407,1.229c-2.747,0-5.145-0.578-7.188-1.73c-2.044-1.151-3.577-2.802-4.605-4.947
						c-1.028-2.145-1.544-4.475-1.544-6.997c0-2.74,0.573-5.172,1.723-7.294c1.146-2.128,2.826-3.763,5.038-4.897
						c1.685-0.869,3.78-1.308,6.289-1.308c3.264,0,5.813,0.685,7.644,2.056c1.836,1.364,3.016,3.257,3.543,5.671l-5.273,0.982
						c-0.371-1.286-1.067-2.308-2.089-3.054c-1.016-0.748-2.297-1.118-3.825-1.118c-2.318,0-4.161,0.736-5.531,2.2
						c-1.364,1.473-2.049,3.651-2.049,6.543c0,3.123,0.691,5.459,2.078,7.02c1.387,1.562,3.201,2.336,5.446,2.336
						c1.113,0,2.23-0.213,3.347-0.65c1.118-0.438,2.073-0.967,2.875-1.589v-3.331H410.722z"/>
				</g>
				<g>
					<path fill="#3D3A39" d="M429.142,153.433v-26.063h5.307v21.637h13.191v4.426H429.142z"/>
				</g>
				<g>
					<path fill="#3D3A39" d="M453.368,153.433v-26.276h19.479v4.449h-14.18v5.822h13.197v4.425h-13.197v7.154h14.681v4.426H453.368z
						"/>
				</g>
				<g>
					<path fill="#3D3A39" d="M479.851,153.433v-26.276h5.161l10.754,17.55v-17.55h4.931v26.276h-5.323l-10.592-17.134v17.134
						H479.851z"/>
				</g>
				<g>
					<path fill="#3D3A39" d="M507.177,140.456c0-2.673,0.399-4.919,1.202-6.739c0.595-1.336,1.409-2.538,2.448-3.6
						c1.027-1.066,2.161-1.854,3.392-2.369c1.64-0.69,3.527-1.039,5.666-1.039c3.869,0,6.969,1.201,9.294,3.604
						c2.324,2.399,3.487,5.739,3.487,10.019c0,4.24-1.156,7.559-3.46,9.956c-2.308,2.398-5.39,3.595-9.248,3.595
						c-3.909,0-7.02-1.19-9.322-3.577C508.327,147.924,507.177,144.639,507.177,140.456z M512.641,140.276
						c0,2.976,0.69,5.233,2.067,6.767c1.369,1.539,3.115,2.302,5.232,2.302c2.111,0,3.847-0.757,5.206-2.279
						c1.354-1.527,2.033-3.813,2.033-6.857c0-3.015-0.663-5.261-1.983-6.744c-1.318-1.477-3.07-2.218-5.256-2.218
						c-2.189,0-3.952,0.746-5.289,2.246S512.641,137.254,512.641,140.276z"/>
				</g>
				<g>
					<path fill="#3D3A39" d="M551.732,153.433v-26.276h19.486v4.449h-14.181v5.822h13.192v4.425h-13.192v7.154h14.681v4.426H551.732
						z"/>
				</g>
				<g>
					<path fill="#3D3A39" d="M578.214,153.433v-26.276h5.167l10.754,17.55v-17.55h4.925v26.276h-5.324l-10.59-17.134v17.134H578.214
						z"/>
				</g>
				<g>
					<path fill="#3D3A39" d="M612.532,153.433v-21.827h-7.795v-4.449h20.879v4.449h-7.778v21.827H612.532z"/>
				</g>
				<g>
					<path fill="#3D3A39" d="M630.985,153.433v-26.276h8.513c3.23,0,5.33,0.129,6.313,0.393c1.504,0.395,2.768,1.254,3.778,2.573
						c1.017,1.319,1.528,3.027,1.528,5.115c0,1.618-0.298,2.972-0.882,4.072s-1.325,1.966-2.229,2.588
						c-0.904,0.629-1.819,1.045-2.752,1.247c-1.269,0.254-3.1,0.376-5.504,0.376h-3.458v9.912H630.985z M636.292,131.606v7.45h2.903
						c2.089,0,3.486-0.135,4.194-0.409c0.708-0.275,1.258-0.707,1.656-1.292c0.399-0.583,0.601-1.263,0.601-2.043
						c0-0.956-0.28-1.741-0.842-2.364c-0.562-0.624-1.269-1.011-2.134-1.168c-0.629-0.119-1.904-0.174-3.818-0.174H636.292z"/>
				</g>
				<g>
					<path fill="#3D3A39" d="M652.65,153.433v-5.038h5.038v5.038H652.65z"/>
				</g>
				<g>
					<path fill="#3D3A39" d="M694.62,143.774l5.145,1.629c-0.785,2.869-2.1,4.998-3.93,6.391c-1.837,1.392-4.161,2.089-6.98,2.089
						c-3.494,0-6.363-1.19-8.604-3.577c-2.252-2.381-3.375-5.644-3.375-9.777c0-4.374,1.129-7.771,3.392-10.187
						c2.257-2.42,5.229-3.633,8.906-3.633c3.212,0,5.823,0.948,7.834,2.852c1.196,1.124,2.089,2.735,2.69,4.835l-5.252,1.258
						c-0.313-1.364-0.96-2.436-1.947-3.229c-0.983-0.786-2.185-1.179-3.595-1.179c-1.948,0-3.526,0.696-4.739,2.095
						s-1.82,3.66-1.82,6.795c0,3.318,0.596,5.689,1.792,7.099s2.752,2.11,4.661,2.11c1.409,0,2.622-0.443,3.639-1.342
						C693.453,147.105,694.183,145.696,694.62,143.774z"/>
				</g>
				<g>
					<path fill="#3D3A39" d="M705.19,140.456c0-2.673,0.399-4.919,1.202-6.739c0.595-1.336,1.415-2.538,2.447-3.6
						c1.034-1.066,2.163-1.854,3.398-2.369c1.635-0.69,3.521-1.039,5.66-1.039c3.875,0,6.97,1.201,9.294,3.604
						c2.325,2.399,3.487,5.739,3.487,10.019c0,4.24-1.15,7.559-3.459,9.956c-2.308,2.398-5.391,3.595-9.248,3.595
						c-3.909,0-7.015-1.19-9.322-3.577C706.341,147.924,705.19,144.639,705.19,140.456z M710.659,140.276
						c0,2.976,0.686,5.233,2.061,6.767c1.371,1.539,3.117,2.302,5.234,2.302c2.111,0,3.846-0.757,5.206-2.279
						c1.354-1.527,2.033-3.813,2.033-6.857c0-3.015-0.657-5.261-1.978-6.744c-1.325-1.477-3.077-2.218-5.262-2.218
						c-2.189,0-3.953,0.746-5.29,2.246S710.659,137.254,710.659,140.276z"/>
				</g>
				<g>
					<path fill="#3D3A39" d="M736.733,153.433v-5.038h5.031v5.038H736.733z"/>
				</g>
				<g>
					<path fill="#3D3A39" d="M748.751,148.395h5.036V152c0,1.455-0.129,2.606-0.375,3.449c-0.254,0.842-0.73,1.6-1.428,2.268
						c-0.701,0.669-1.589,1.196-2.661,1.579l-0.988-2.078c1.016-0.337,1.741-0.798,2.173-1.383c0.427-0.582,0.657-1.387,0.68-2.402
						h-2.437V148.395z"/>
				</g>
				<g>
					<path fill="#3D3A39" d="M774.178,153.433v-26.063h5.308v21.637h13.19v4.426H774.178z"/>
				</g>
				<g>
					<path fill="#3D3A39" d="M801.593,153.433v-21.827h-7.794v-4.449h20.879v4.449H806.9v21.827H801.593z"/>
				</g>
				<g>
					<path fill="#3D3A39" d="M820.03,127.157h9.698c2.185,0,3.853,0.169,4.998,0.5c1.544,0.455,2.864,1.264,3.965,2.421
						c1.101,1.162,1.938,2.577,2.511,4.256c0.572,1.68,0.858,3.751,0.858,6.212c0,2.162-0.27,4.026-0.809,5.593
						c-0.657,1.915-1.594,3.46-2.813,4.644c-0.921,0.895-2.161,1.596-3.729,2.095c-1.168,0.371-2.734,0.557-4.694,0.557h-9.985
						V127.157z M825.337,131.606v17.401h3.959c1.482,0,2.554-0.083,3.212-0.252c0.858-0.213,1.572-0.579,2.139-1.096
						c0.568-0.51,1.034-1.358,1.394-2.533c0.354-1.178,0.533-2.779,0.533-4.813c0-2.032-0.18-3.593-0.533-4.677
						c-0.359-1.09-0.864-1.938-1.511-2.55c-0.646-0.606-1.46-1.016-2.454-1.235c-0.74-0.169-2.19-0.246-4.353-0.246H825.337z"/>
				</g>
				<g>
					<path fill="#3D3A39" d="M848.468,153.433v-5.038h5.036v5.038H848.468z"/>
				</g>
			</g>
		</g>
		<g>
			<g>
				<g>
					<g>
						<g>
							<path fill="#CA151D" d="M18.492,153.4l49.468-85.897c2.095-3.636,5.846-5.807,10.035-5.807c4.431,0,8.412,2.465,10.383,6.43
								l0.017,0.033l5.992,10.426l-32.571,56.536c-3.464,6.014-2.392,13.467,2.241,18.279H18.492z"/>
						</g>
					</g>
					<g>
						<g>
							<path fill="#CA151D" d="M81.601,153.4c-4.341,0-8.159-2.286-10.215-6.115c-2.05-3.831-1.836-8.273,0.567-11.89l0.039-0.061
								l6.026-10.368l65.249,0.013c6.94,0,12.865-4.645,14.718-11.063l22.738,39.483H81.601z"/>
						</g>
					</g>
					<g>
						<g>
							<path fill="#57534F" d="M139.083,115.808c-0.265,0-0.534-0.005-0.798-0.022l-0.067-0.005l-11.989-0.046l-32.56-56.549
								c-2.723-4.737-7.817-7.676-13.287-7.676c-1.241,0-2.454,0.146-3.639,0.438l22.861-39.402l49.468,85.895
								c2.089,3.627,2.089,7.957-0.005,11.572C146.972,113.64,143.239,115.808,139.083,115.808L139.083,115.808z"/>
						</g>
					</g>
				</g>
				<g>
					<path fill="#57534F" d="M86.969,109.57l9.075-15.606c1.606-2.763,5.599-2.752,7.188,0.012l8.974,15.611
						c1.595,2.768-0.404,6.222-3.6,6.222H90.558C87.357,115.808,85.364,112.337,86.969,109.57z"/>
				</g>
			</g>
		</g>
		<g>
			<g>
				<path fill="#3D3A39" d="M241.17,82.173c-2.252-2.252-6.941-5.478-10.529-7.609l4.262-4.992
					c3.527,1.948,8.401,4.869,10.833,7.061L241.17,82.173z M247.566,88.688c-2.802,6.387-6.087,13.271-9.254,19.235l-6.452-4.441
					c2.858-4.627,6.878-12.181,10.041-19.239L247.566,88.688z M243.91,66.59c-2.067-2.255-6.694-5.723-10.227-7.915l4.442-4.869
					c3.533,2.007,8.283,5.234,10.597,7.426L243.91,66.59z M284.09,85.461c-2.313,5.722-5.722,10.227-10.046,13.758
					c4.077,1.585,8.705,2.74,14.124,3.409c-1.398,1.521-3.223,4.504-4.139,6.452c-6.514-1.095-11.995-3.043-16.617-5.42
					c-5.301,2.803-11.327,4.69-17.903,6.025c-0.668-1.824-2.128-4.683-3.408-6.086c5.419-0.849,10.473-2.19,14.977-4.201
					c-1.46-1.156-2.858-2.493-4.078-3.835c-1.459,1.156-2.864,2.195-4.447,3.043c-0.972-1.274-3.347-3.773-4.684-4.925
					c1.825-0.92,3.65-2.011,5.295-3.291c-0.915-1.46-1.645-2.923-2.313-4.382l5.475-2.679c0.365,0.913,0.854,1.828,1.342,2.679
					c2.01-2.373,3.532-5.114,4.565-8.036l6.453,1.459c-0.545,1.401-1.157,2.741-1.825,4.08h11.321l1.219-0.245L284.09,85.461z
					 M264.789,69.024c-1.275,6.879-4.257,11.506-14.241,14.426c-0.674-1.642-2.375-4.259-3.718-5.357
					c7.671-1.764,9.985-4.504,11.08-8.521c-4.139,0.364-5.537,0.67-6.632,1.095c-0.365-1.46-1.466-4.81-2.196-6.573
					c1.219-0.306,2.438-1.036,3.959-2.255c1.583-1.157,6.334-5.354,9.496-9.861l7.368,2.314c-2.802,3.164-5.963,6.332-9.131,8.948
					l14.303-0.668l-3.527-4.08l5.296-3.044c3.532,3.897,8.643,9.314,11.197,12.602l-5.661,3.591
					c-0.668-1.033-1.645-2.251-2.741-3.591l-3.526,0.245v5.175c0,1.398,0.118,1.887,1.213,1.887h5.419
					c1.157,0,2.987-0.124,3.897-0.427c0.185,1.643,0.365,4.08,0.545,5.602c-0.972,0.303-2.673,0.424-4.257,0.424h-5.784
					c-5.908,0-7.306-2.07-7.306-7.547v-4.689L264.789,69.024z M263.267,89.173c-0.545,0.668-1.095,1.343-1.702,2.01
					c1.702,1.701,3.65,3.285,5.846,4.751c2.797-1.948,5.172-4.138,6.879-6.761H263.267z"/>
			</g>
			<g>
				<path fill="#3D3A39" d="M303.699,81.688c-2.252-1.705-6.997-4.566-10.288-6.515l3.595-5.542c3.1,1.708,7.973,4.265,10.349,5.966
					L303.699,81.688z M294.933,104.274c2.802-4.689,6.818-12.422,9.861-19.422l5.178,4.018c-2.741,6.453-6.149,13.518-9.255,19.357
					L294.933,104.274z M305.71,65.857c-1.948-2.008-6.149-5.234-9.07-7.486l4.201-4.992c2.921,2.007,7.183,4.869,9.312,6.758
					L305.71,65.857z M351.062,71.094v5.174h-42.494v-5.174h17.656v-2.799h-14.185v-4.872h14.185v-2.679h-15.886v-5.172h15.886
					v-3.167h7.245v3.167h16.257v5.172h-16.257v2.679h14.73v4.872h-14.73v2.799H351.062z M346.373,102.139
					c0,3.348-0.73,4.932-2.982,5.971c-2.251,0.971-5.481,1.032-9.737,1.032c-0.309-1.887-1.28-4.447-2.134-6.148
					c2.437,0.123,5.419,0.123,6.273,0.123c0.854-0.062,1.156-0.303,1.156-1.039v-2.493h-18.874c-0.792,3.589-2.19,7.121-4.503,9.799
					c-1.096-1.46-4.078-4.262-5.543-5.172c3.471-4.138,3.78-9.922,3.78-14.611V78.765h32.564V102.139z M338.948,94.772V91.61H320.99
					c-0.061,1.033-0.124,2.072-0.247,3.162H338.948z M320.99,83.816v3.167h17.958v-3.167H320.99z"/>
			</g>
			<g>
				<path fill="#3D3A39" d="M391.371,55.083c-0.426,0.547-0.854,1.157-1.28,1.704c7.975,8.401,16.437,12.54,25.079,15.583
					c-1.763,1.525-3.711,4.08-4.565,6.273c-8.401-3.653-16.437-8.098-24.715-16.926c-6.756,7.183-15.403,12.908-24.226,16.926
					c-1.039-1.887-3.105-4.506-4.93-6.149c10.895-4.262,22.036-11.506,28.123-20.637L391.371,55.083z M390.091,101.107h21.794v6.514
					h-51.742v-6.514h6.57V79.86h7.187v21.247h8.52V69.875h7.671v12.542h16.258v6.514h-16.258V101.107z"/>
			</g>
			<g>
				<path fill="#3D3A39" d="M444.096,99.765c-4.139,3.47-11.444,6.637-17.711,8.097c-0.916-1.521-2.803-3.897-4.262-5.233
					c6.086-0.854,13.146-2.921,16.863-5.178L444.096,99.765z M476.365,89.482v5.963h-23.62v13.878h-7.182V95.445h-23.199v-5.963
					h23.199V86.8h-17.532v-5.236h17.532v-2.738h-20.582v-5.48h11.203c-0.55-1.398-1.46-3.103-2.252-4.445l4.077-0.913h-15.521v-5.66
					h8.277c-0.91-2.313-2.493-5.236-3.892-7.547l6.205-2.072c1.826,2.558,3.836,6.21,4.627,8.524l-2.919,1.095h5.599v-9.923h6.699
					v9.923h4.564v-9.923h6.818v9.923h5.419l-2.195-0.668c1.403-2.438,3.043-6.149,3.896-8.77l7.609,1.767
					c-1.701,2.799-3.347,5.54-4.868,7.671h7.85v5.66h-16.071l5.728,1.463c-1.342,1.46-2.622,2.8-3.718,3.895h11.748v5.48h-21.12
					v2.738h18.263V86.8h-18.263v2.682H476.365z M441.238,67.988c0.972,1.522,1.949,3.289,2.432,4.569l-3.284,0.789h16.622
					l-2.196-0.668c0.977-1.401,2.252-3.227,3.106-4.689H441.238z M460.23,97.085c4.931,1.831,12.113,4.874,16.011,6.823l-5.11,3.953
					c-3.532-2.011-10.652-5.233-15.769-7.361L460.23,97.085z"/>
			</g>
			<g>
				<path fill="#3D3A39" d="M539.197,80.104c-1.948,7.729-5.48,13.636-10.107,18.262c3.471,1.949,7.485,3.471,11.872,4.504
					c-1.584,1.521-3.651,4.386-4.628,6.272c-5.054-1.403-9.372-3.471-13.084-6.087c-3.897,2.494-8.345,4.379-13.276,5.846
					c-0.668-1.83-2.313-4.51-3.588-6.031c-0.186,2.134-0.792,3.594-2.258,4.51c-1.701,1.156-4.138,1.336-7.665,1.336
					c-0.186-1.825-0.977-4.93-1.831-6.756c1.894,0.063,3.718,0.063,4.387,0.063c0.667,0,0.915-0.247,0.915-0.977V88.931
					c-1.646,1.034-3.167,2.067-4.688,2.981l-1.77-4.383c-0.421,7.612-1.46,15.768-3.773,21.731
					c-1.275-1.097-4.263-2.674-5.784-3.286c3.167-8.34,3.353-20.514,3.353-29.342V54.536h19.177v18.2
					c6.571-3.285,7.362-7.668,7.362-11.626v-6.514h20.458v13.334c0,1.764,0.117,2.435,0.848,2.435h2.376
					c0.791,0,2.19-0.183,2.981-0.427c0.186,1.767,0.309,4.139,0.551,5.785c-0.916,0.303-2.252,0.365-3.472,0.365h-3.104
					c-5.784,0-6.941-2.438-6.941-8.28v-6.512h-7.121v0.059c0,5.785-1.763,12.419-9.737,16.5c-0.735-1.157-2.863-3.35-4.2-4.507
					v27.822c0,0.483,0,0.972-0.062,1.399c4.14-0.972,7.974-2.432,11.321-4.324c-3.167-3.409-5.784-7.369-7.795-11.869l2.987-0.912
					h-4.385v-6.759h24.776l1.342-0.303L539.197,80.104z M493.783,76.572c0,2.496-0.062,5.357-0.185,8.28
					c1.824-0.609,3.958-1.401,6.334-2.313v-6.635l-2.438,1.949c-0.792-1.157-2.19-2.923-3.712-4.627V76.572z M493.783,61.05v7.548
					l1.702-1.219c1.46,1.401,3.104,3.043,4.447,4.568V61.05H493.783z M516.673,85.461c1.583,3.227,3.892,6.148,6.632,8.648
					c2.679-2.381,4.931-5.302,6.575-8.648H516.673z"/>
			</g>
			<g>
				<path fill="#3D3A39" d="M566.906,54.78c-1.646,4.198-3.595,8.521-5.847,12.661v41.701h-7.121V78.458
					c-1.28,1.646-2.561,3.105-3.835,4.506c-0.674-1.825-2.616-5.784-3.896-7.547c5.48-5.481,10.838-14.124,13.881-22.831
					L566.906,54.78z M593.691,54.168c1.702,7.306,5.723,14.55,11.019,18.509c-1.342,1.704-3.47,5.357-4.448,7.73
					c-0.848-0.789-1.639-1.581-2.369-2.434c-0.062,0.671-0.062,1.521-0.062,2.01c-0.729,17.103-1.403,23.74-3.168,25.93
					c-1.218,1.708-2.555,2.252-4.38,2.561c-1.583,0.304-4.082,0.366-6.823,0.242c-0.179-2.01-0.848-4.807-1.887-6.576
					c2.072,0.248,3.96,0.248,4.993,0.248c0.854,0,1.341-0.186,1.892-0.854c0.972-1.28,1.579-5.908,2.129-17.777h-7.672
					c-1.583,12.235-5.784,20.208-14.673,25.206c-0.849-1.403-3.347-4.144-4.808-5.362c7.733-3.651,11.26-10.227,12.416-19.843
					h-5.598v-6.27c-0.793,0.912-1.646,1.763-2.494,2.555c-0.853-1.643-3.167-5.113-4.447-6.697
					c4.931-4.201,8.766-10.894,10.838-18.201l7.121,1.825c-2.252,7.551-5.964,14.794-10.653,20.09h26.484
					c-3.773-4.565-6.88-10.349-8.891-15.951h-5.418v-6.941H593.691z"/>
			</g>
			<g>
				<path fill="#3D3A39" d="M633.573,66.528c-0.674,1.642-1.527,3.226-2.437,4.81h28.309v30.071c0,3.594-0.669,5.542-3.167,6.639
					c-2.376,1.155-5.847,1.213-10.777,1.213c-0.303-2.006-1.274-5.05-2.19-6.998c3.106,0.185,6.639,0.185,7.671,0.185
					c1.034-0.061,1.398-0.37,1.398-1.218v-3.655h-22.889c-1.034,4.564-2.982,9.013-6.756,12.111
					c-0.972-1.521-3.712-4.564-5.233-5.536c5.233-4.565,5.66-11.079,5.66-16.74v-4.933c-2.313,2.437-4.751,4.689-7.547,6.634
					c-1.102-1.643-3.354-4.259-4.751-5.598c6.148-4.08,11.018-10.229,14.612-16.984h-13.215v-6.817h16.319
					c0.972-2.497,1.763-4.931,2.432-7.368l7.491,1.704c-0.612,1.89-1.28,3.777-1.948,5.664h29.706v6.817H633.573z M652.38,91.549
					v-3.957h-21.855c0,1.277-0.057,2.553-0.118,3.957H652.38z M652.38,77.729h-21.855v3.835h21.855V77.729z"/>
			</g>
			<g>
				<path fill="#3D3A39" d="M697.075,57.214c-1.583,5.113-3.594,11.263-5.234,15.949c3.651,4.748,4.381,9.072,4.381,12.664
					c0,3.896-0.792,6.514-2.74,7.975c-0.91,0.729-2.066,1.094-3.409,1.341c-1.095,0.181-2.555,0.181-3.953,0.119
					c0-1.765-0.612-4.442-1.584-6.205c1.033,0.055,1.949,0.117,2.617,0.055c0.606,0,1.219-0.122,1.646-0.484
					c0.73-0.548,1.095-1.888,1.095-3.592c0-2.982-0.792-6.879-4.262-11.139c1.156-3.715,2.493-8.646,3.47-12.664h-5.907v47.91
					h-6.329V54.78h14.488l0.972-0.306L697.075,57.214z M729.888,88.505c-2.617,2.066-5.784,4.379-8.525,6.148
					c2.561,3.471,5.847,6.329,9.861,8.16c-1.578,1.397-3.773,4.257-4.808,6.267c-9.068-4.992-13.938-14.364-16.802-26.298h-3.649
					v17.104L714.427,98c-0.062,2.073,0.058,5.055,0.304,6.577c-11.871,3.043-14.123,3.958-15.589,4.867
					c-0.545-1.583-2.066-4.441-3.1-5.659c1.274-0.792,2.796-2.438,2.796-5.296V54.839h27.518v27.944h-10.529
					c0.668,2.375,1.46,4.565,2.432,6.632c2.498-1.885,5.177-4.136,6.94-6.022L729.888,88.505z M705.965,61.05v4.748h13.394V61.05
					H705.965z M705.965,76.513h13.394v-4.872h-13.394V76.513z"/>
			</g>
			<g>
				<path fill="#3D3A39" d="M761.493,56.361c-4.449,9.984-11.569,20.272-18.145,26.663c-1.398-1.581-4.628-4.746-6.453-6.208
					c6.453-5.417,12.843-14.244,16.499-23.072L761.493,56.361z M778.536,84.304c4.93,6.694,10.529,15.342,13.517,21.003
					l-7.491,3.954c-0.792-1.765-1.887-3.774-3.162-5.964c-29.409,2.313-33.548,2.678-36.529,3.773
					c-0.489-1.521-1.887-5.6-2.982-7.728c2.011-0.55,3.65-2.196,6.088-4.875c2.555-2.616,10.164-12.963,14.977-23.069l8.463,3.53
					c-4.688,8.218-10.535,16.372-16.437,22.948l22.339-1.461c-1.949-3.043-3.959-6.205-5.846-8.887L778.536,84.304z M779.693,53.868
					c2.617,8.522,8.16,17.105,15.646,21.671c-1.646,1.583-4.263,5.051-5.481,7.306c-6.94-5.298-12.354-13.455-15.763-21.491h-9.744
					v-7.485H779.693z"/>
			</g>
			<g>
				<path fill="#3D3A39" d="M853.606,100.074c0,4.138-0.73,6.328-3.347,7.608c-2.499,1.28-6.396,1.46-11.81,1.398
					c-0.248-2.129-1.343-5.723-2.376-7.851c3.408,0.241,7.425,0.18,8.581,0.118c1.101,0,1.521-0.303,1.521-1.337V62.937h-42.487
					v-6.879h49.917V100.074z M840.088,73.59h-35.794v-6.332h35.794V73.59z M814.464,98.668v4.387H807.4V78.094h29.528v20.575
					H814.464z M814.464,84.304v8.155h15.337v-8.155H814.464z"/>
			</g>
		</g>
	</g>
</g>
</svg>
